<svg xmlns="http://www.w3.org/2000/svg" version="1.1" xmlns:xlink="http://www.w3.org/1999/xlink" xmlns:svgjs="http://svgjs.dev/svgjs" width="1440" height="560" preserveAspectRatio="none" viewBox="0 0 1440 560"><g mask="url(&quot;#SvgjsMask1064&quot;)" fill="none"><path d="M-94.02 343.59L-94.02 343.59" stroke="rgba(57, 87, 118, 1)" stroke-width="1.5"></path><path d="M-94.02 343.59L-75.31 493.83" stroke="rgba(57, 87, 118, 1)" stroke-width="1.5"></path><path d="M-94.02 343.59L66.49 375.29" stroke="rgba(57, 87, 118, 1)" stroke-width="1.5"></path><path d="M-94.02 343.59L99.89 542.12" stroke="rgba(57, 87, 118, 1)" stroke-width="1.5"></path><path d="M-94.02 343.59L250.86 409.07" stroke="rgba(57, 87, 118, 1)" stroke-width="1.5"></path><path d="M-75.31 493.83L-75.31 493.83" stroke="rgba(57, 87, 118, 1)" stroke-width="1.5"></path><path d="M-75.31 493.83L99.89 542.12" stroke="rgba(57, 87, 118, 1)" stroke-width="1.5"></path><path d="M-78.04 705.26L-78.04 705.26" stroke="rgba(57, 87, 118, 1)" stroke-width="1.5"></path><path d="M-78.04 705.26L55.98 687.55" stroke="rgba(57, 87, 118, 1)" stroke-width="1.5"></path><path d="M-78.04 705.26L-75.31 493.83" stroke="rgba(57, 87, 118, 1)" stroke-width="1.5"></path><path d="M-78.04 705.26L99.89 542.12" stroke="rgba(57, 87, 118, 1)" stroke-width="1.5"></path><path d="M-78.04 705.26L188.47 696.03" stroke="rgba(57, 87, 118, 1)" stroke-width="1.5"></path><path d="M-78.04 705.26L197.31 540.51" stroke="rgba(57, 87, 118, 1)" stroke-width="1.5"></path><path d="M-78.04 705.26L66.49 375.29" stroke="rgba(57, 87, 118, 1)" stroke-width="1.5"></path><path d="M66.49 375.29L66.49 375.29" stroke="rgba(57, 87, 118, 1)" stroke-width="1.5"></path><path d="M66.49 375.29L99.89 542.12" stroke="rgba(57, 87, 118, 1)" stroke-width="1.5"></path><path d="M99.89 542.12L99.89 542.12" stroke="rgba(57, 87, 118, 1)" stroke-width="1.5"></path><path d="M99.89 542.12L197.31 540.51" stroke="rgba(57, 87, 118, 1)" stroke-width="1.5"></path><path d="M99.89 542.12L55.98 687.55" stroke="rgba(57, 87, 118, 1)" stroke-width="1.5"></path><path d="M55.98 687.55L55.98 687.55" stroke="rgba(57, 87, 118, 1)" stroke-width="1.5"></path><path d="M55.98 687.55L188.47 696.03" stroke="rgba(57, 87, 118, 1)" stroke-width="1.5"></path><path d="M55.98 687.55L197.31 540.51" stroke="rgba(57, 87, 118, 1)" stroke-width="1.5"></path><path d="M250.86 409.07L250.86 409.07" stroke="rgba(57, 87, 118, 1)" stroke-width="1.5"></path><path d="M250.86 409.07L349.19 362.41" stroke="rgba(57, 87, 118, 1)" stroke-width="1.5"></path><path d="M250.86 409.07L197.31 540.51" stroke="rgba(57, 87, 118, 1)" stroke-width="1.5"></path><path d="M250.86 409.07L387.37 503.66" stroke="rgba(57, 87, 118, 1)" stroke-width="1.5"></path><path d="M250.86 409.07L66.49 375.29" stroke="rgba(57, 87, 118, 1)" stroke-width="1.5"></path><path d="M250.86 409.07L99.89 542.12" stroke="rgba(57, 87, 118, 1)" stroke-width="1.5"></path><path d="M197.31 540.51L197.31 540.51" stroke="rgba(57, 87, 118, 1)" stroke-width="1.5"></path><path d="M197.31 540.51L188.47 696.03" stroke="rgba(57, 87, 118, 1)" stroke-width="1.5"></path><path d="M188.47 696.03L188.47 696.03" stroke="rgba(57, 87, 118, 1)" stroke-width="1.5"></path><path d="M188.47 696.03L99.89 542.12" stroke="rgba(57, 87, 118, 1)" stroke-width="1.5"></path><path d="M349.19 362.41L349.19 362.41" stroke="rgba(57, 87, 118, 1)" stroke-width="1.5"></path><path d="M349.19 362.41L387.37 503.66" stroke="rgba(57, 87, 118, 1)" stroke-width="1.5"></path><path d="M387.37 503.66L387.37 503.66" stroke="rgba(57, 87, 118, 1)" stroke-width="1.5"></path><path d="M387.37 503.66L509.62 553.68" stroke="rgba(57, 87, 118, 1)" stroke-width="1.5"></path><path d="M387.37 503.66L403.45 687.06" stroke="rgba(57, 87, 118, 1)" stroke-width="1.5"></path><path d="M387.37 503.66L197.31 540.51" stroke="rgba(57, 87, 118, 1)" stroke-width="1.5"></path><path d="M387.37 503.66L520.71 360.99" stroke="rgba(57, 87, 118, 1)" stroke-width="1.5"></path><path d="M403.45 687.06L403.45 687.06" stroke="rgba(57, 87, 118, 1)" stroke-width="1.5"></path><path d="M403.45 687.06L534.67 650.31" stroke="rgba(57, 87, 118, 1)" stroke-width="1.5"></path><path d="M403.45 687.06L509.62 553.68" stroke="rgba(57, 87, 118, 1)" stroke-width="1.5"></path><path d="M403.45 687.06L188.47 696.03" stroke="rgba(57, 87, 118, 1)" stroke-width="1.5"></path><path d="M403.45 687.06L197.31 540.51" stroke="rgba(57, 87, 118, 1)" stroke-width="1.5"></path><path d="M520.71 360.99L520.71 360.99" stroke="rgba(57, 87, 118, 1)" stroke-width="1.5"></path><path d="M520.71 360.99L349.19 362.41" stroke="rgba(57, 87, 118, 1)" stroke-width="1.5"></path><path d="M520.71 360.99L509.62 553.68" stroke="rgba(57, 87, 118, 1)" stroke-width="1.5"></path><path d="M520.71 360.99L649.58 512.91" stroke="rgba(57, 87, 118, 1)" stroke-width="1.5"></path><path d="M520.71 360.99L703.85 223.18" stroke="rgba(57, 87, 118, 1)" stroke-width="1.5"></path><path d="M520.71 360.99L250.86 409.07" stroke="rgba(57, 87, 118, 1)" stroke-width="1.5"></path><path d="M509.62 553.68L509.62 553.68" stroke="rgba(57, 87, 118, 1)" stroke-width="1.5"></path><path d="M509.62 553.68L534.67 650.31" stroke="rgba(57, 87, 118, 1)" stroke-width="1.5"></path><path d="M534.67 650.31L534.67 650.31" stroke="rgba(57, 87, 118, 1)" stroke-width="1.5"></path><path d="M534.67 650.31L654.97 651.89" stroke="rgba(57, 87, 118, 1)" stroke-width="1.5"></path><path d="M534.67 650.31L649.58 512.91" stroke="rgba(57, 87, 118, 1)" stroke-width="1.5"></path><path d="M534.67 650.31L387.37 503.66" stroke="rgba(57, 87, 118, 1)" stroke-width="1.5"></path><path d="M534.67 650.31L520.71 360.99" stroke="rgba(57, 87, 118, 1)" stroke-width="1.5"></path><path d="M703.85 223.18L703.85 223.18" stroke="rgba(57, 87, 118, 1)" stroke-width="1.5"></path><path d="M703.85 223.18L849.35 261.13" stroke="rgba(57, 87, 118, 1)" stroke-width="1.5"></path><path d="M703.85 223.18L836.09 111.71" stroke="rgba(57, 87, 118, 1)" stroke-width="1.5"></path><path d="M703.85 223.18L813.05 395.65" stroke="rgba(57, 87, 118, 1)" stroke-width="1.5"></path><path d="M703.85 223.18L971.3 248.31" stroke="rgba(57, 87, 118, 1)" stroke-width="1.5"></path><path d="M649.58 512.91L649.58 512.91" stroke="rgba(57, 87, 118, 1)" stroke-width="1.5"></path><path d="M649.58 512.91L654.97 651.89" stroke="rgba(57, 87, 118, 1)" stroke-width="1.5"></path><path d="M649.58 512.91L509.62 553.68" stroke="rgba(57, 87, 118, 1)" stroke-width="1.5"></path><path d="M654.97 651.89L654.97 651.89" stroke="rgba(57, 87, 118, 1)" stroke-width="1.5"></path><path d="M654.97 651.89L509.62 553.68" stroke="rgba(57, 87, 118, 1)" stroke-width="1.5"></path><path d="M836.09 111.71L836.09 111.71" stroke="rgba(57, 87, 118, 1)" stroke-width="1.5"></path><path d="M836.09 111.71L849.35 261.13" stroke="rgba(57, 87, 118, 1)" stroke-width="1.5"></path><path d="M849.35 261.13L849.35 261.13" stroke="rgba(57, 87, 118, 1)" stroke-width="1.5"></path><path d="M849.35 261.13L971.3 248.31" stroke="rgba(57, 87, 118, 1)" stroke-width="1.5"></path><path d="M849.35 261.13L959.23 339.69" stroke="rgba(57, 87, 118, 1)" stroke-width="1.5"></path><path d="M849.35 261.13L813.05 395.65" stroke="rgba(57, 87, 118, 1)" stroke-width="1.5"></path><path d="M813.05 395.65L813.05 395.65" stroke="rgba(57, 87, 118, 1)" stroke-width="1.5"></path><path d="M813.05 395.65L959.23 339.69" stroke="rgba(57, 87, 118, 1)" stroke-width="1.5"></path><path d="M813.05 395.65L985.93 488.3" stroke="rgba(57, 87, 118, 1)" stroke-width="1.5"></path><path d="M813.05 395.65L649.58 512.91" stroke="rgba(57, 87, 118, 1)" stroke-width="1.5"></path><path d="M859.53 666.35L859.53 666.35" stroke="rgba(57, 87, 118, 1)" stroke-width="1.5"></path><path d="M859.53 666.35L962.77 658.52" stroke="rgba(57, 87, 118, 1)" stroke-width="1.5"></path><path d="M859.53 666.35L654.97 651.89" stroke="rgba(57, 87, 118, 1)" stroke-width="1.5"></path><path d="M859.53 666.35L985.93 488.3" stroke="rgba(57, 87, 118, 1)" stroke-width="1.5"></path><path d="M859.53 666.35L649.58 512.91" stroke="rgba(57, 87, 118, 1)" stroke-width="1.5"></path><path d="M945.4 -89.28L945.4 -89.28" stroke="rgba(57, 87, 118, 1)" stroke-width="1.5"></path><path d="M945.4 -89.28L836.09 111.71" stroke="rgba(57, 87, 118, 1)" stroke-width="1.5"></path><path d="M945.4 -89.28L1161.52 71.61" stroke="rgba(57, 87, 118, 1)" stroke-width="1.5"></path><path d="M945.4 -89.28L971.3 248.31" stroke="rgba(57, 87, 118, 1)" stroke-width="1.5"></path><path d="M945.4 -89.28L1251.06 71.42" stroke="rgba(57, 87, 118, 1)" stroke-width="1.5"></path><path d="M971.3 248.31L971.3 248.31" stroke="rgba(57, 87, 118, 1)" stroke-width="1.5"></path><path d="M971.3 248.31L959.23 339.69" stroke="rgba(57, 87, 118, 1)" stroke-width="1.5"></path><path d="M959.23 339.69L959.23 339.69" stroke="rgba(57, 87, 118, 1)" stroke-width="1.5"></path><path d="M985.93 488.3L985.93 488.3" stroke="rgba(57, 87, 118, 1)" stroke-width="1.5"></path><path d="M985.93 488.3L1092.25 505.16" stroke="rgba(57, 87, 118, 1)" stroke-width="1.5"></path><path d="M985.93 488.3L1104.6 411.4" stroke="rgba(57, 87, 118, 1)" stroke-width="1.5"></path><path d="M985.93 488.3L959.23 339.69" stroke="rgba(57, 87, 118, 1)" stroke-width="1.5"></path><path d="M985.93 488.3L962.77 658.52" stroke="rgba(57, 87, 118, 1)" stroke-width="1.5"></path><path d="M962.77 658.52L962.77 658.52" stroke="rgba(57, 87, 118, 1)" stroke-width="1.5"></path><path d="M962.77 658.52L1092.25 505.16" stroke="rgba(57, 87, 118, 1)" stroke-width="1.5"></path><path d="M962.77 658.52L1159 703.1" stroke="rgba(57, 87, 118, 1)" stroke-width="1.5"></path><path d="M962.77 658.52L1104.6 411.4" stroke="rgba(57, 87, 118, 1)" stroke-width="1.5"></path><path d="M962.77 658.52L813.05 395.65" stroke="rgba(57, 87, 118, 1)" stroke-width="1.5"></path><path d="M1161.52 71.61L1161.52 71.61" stroke="rgba(57, 87, 118, 1)" stroke-width="1.5"></path><path d="M1161.52 71.61L1251.06 71.42" stroke="rgba(57, 87, 118, 1)" stroke-width="1.5"></path><path d="M1161.52 71.61L1262.67 195.24" stroke="rgba(57, 87, 118, 1)" stroke-width="1.5"></path><path d="M1161.52 71.61L1156.77 257.26" stroke="rgba(57, 87, 118, 1)" stroke-width="1.5"></path><path d="M1156.77 257.26L1156.77 257.26" stroke="rgba(57, 87, 118, 1)" stroke-width="1.5"></path><path d="M1156.77 257.26L1262.67 195.24" stroke="rgba(57, 87, 118, 1)" stroke-width="1.5"></path><path d="M1156.77 257.26L1269.69 364.95" stroke="rgba(57, 87, 118, 1)" stroke-width="1.5"></path><path d="M1156.77 257.26L1104.6 411.4" stroke="rgba(57, 87, 118, 1)" stroke-width="1.5"></path><path d="M1156.77 257.26L971.3 248.31" stroke="rgba(57, 87, 118, 1)" stroke-width="1.5"></path><path d="M1104.6 411.4L1104.6 411.4" stroke="rgba(57, 87, 118, 1)" stroke-width="1.5"></path><path d="M1104.6 411.4L1092.25 505.16" stroke="rgba(57, 87, 118, 1)" stroke-width="1.5"></path><path d="M1092.25 505.16L1092.25 505.16" stroke="rgba(57, 87, 118, 1)" stroke-width="1.5"></path><path d="M1092.25 505.16L1239.5 520.53" stroke="rgba(57, 87, 118, 1)" stroke-width="1.5"></path><path d="M1092.25 505.16L1159 703.1" stroke="rgba(57, 87, 118, 1)" stroke-width="1.5"></path><path d="M1092.25 505.16L959.23 339.69" stroke="rgba(57, 87, 118, 1)" stroke-width="1.5"></path><path d="M1159 703.1L1159 703.1" stroke="rgba(57, 87, 118, 1)" stroke-width="1.5"></path><path d="M1159 703.1L1275.03 641.9" stroke="rgba(57, 87, 118, 1)" stroke-width="1.5"></path><path d="M1159 703.1L1239.5 520.53" stroke="rgba(57, 87, 118, 1)" stroke-width="1.5"></path><path d="M1298.98 -70.58L1298.98 -70.58" stroke="rgba(57, 87, 118, 1)" stroke-width="1.5"></path><path d="M1298.98 -70.58L1398.64 -97.03" stroke="rgba(57, 87, 118, 1)" stroke-width="1.5"></path><path d="M1298.98 -70.58L1251.06 71.42" stroke="rgba(57, 87, 118, 1)" stroke-width="1.5"></path><path d="M1251.06 71.42L1251.06 71.42" stroke="rgba(57, 87, 118, 1)" stroke-width="1.5"></path><path d="M1251.06 71.42L1262.67 195.24" stroke="rgba(57, 87, 118, 1)" stroke-width="1.5"></path><path d="M1251.06 71.42L1445.99 107.79" stroke="rgba(57, 87, 118, 1)" stroke-width="1.5"></path><path d="M1251.06 71.42L1156.77 257.26" stroke="rgba(57, 87, 118, 1)" stroke-width="1.5"></path><path d="M1262.67 195.24L1262.67 195.24" stroke="rgba(57, 87, 118, 1)" stroke-width="1.5"></path><path d="M1262.67 195.24L1404.22 220.33" stroke="rgba(57, 87, 118, 1)" stroke-width="1.5"></path><path d="M1262.67 195.24L1269.69 364.95" stroke="rgba(57, 87, 118, 1)" stroke-width="1.5"></path><path d="M1262.67 195.24L1445.99 107.79" stroke="rgba(57, 87, 118, 1)" stroke-width="1.5"></path><path d="M1269.69 364.95L1269.69 364.95" stroke="rgba(57, 87, 118, 1)" stroke-width="1.5"></path><path d="M1269.69 364.95L1418.01 348.1" stroke="rgba(57, 87, 118, 1)" stroke-width="1.5"></path><path d="M1269.69 364.95L1239.5 520.53" stroke="rgba(57, 87, 118, 1)" stroke-width="1.5"></path><path d="M1239.5 520.53L1239.5 520.53" stroke="rgba(57, 87, 118, 1)" stroke-width="1.5"></path><path d="M1239.5 520.53L1275.03 641.9" stroke="rgba(57, 87, 118, 1)" stroke-width="1.5"></path><path d="M1275.03 641.9L1275.03 641.9" stroke="rgba(57, 87, 118, 1)" stroke-width="1.5"></path><path d="M1275.03 641.9L1422.03 644.34" stroke="rgba(57, 87, 118, 1)" stroke-width="1.5"></path><path d="M1275.03 641.9L1092.25 505.16" stroke="rgba(57, 87, 118, 1)" stroke-width="1.5"></path><path d="M1275.03 641.9L1269.69 364.95" stroke="rgba(57, 87, 118, 1)" stroke-width="1.5"></path><path d="M1275.03 641.9L1104.6 411.4" stroke="rgba(57, 87, 118, 1)" stroke-width="1.5"></path><path d="M1398.64 -97.03L1398.64 -97.03" stroke="rgba(57, 87, 118, 1)" stroke-width="1.5"></path><path d="M1398.64 -97.03L1543.45 -69.52" stroke="rgba(57, 87, 118, 1)" stroke-width="1.5"></path><path d="M1398.64 -97.03L1445.99 107.79" stroke="rgba(57, 87, 118, 1)" stroke-width="1.5"></path><path d="M1445.99 107.79L1445.99 107.79" stroke="rgba(57, 87, 118, 1)" stroke-width="1.5"></path><path d="M1445.99 107.79L1404.22 220.33" stroke="rgba(57, 87, 118, 1)" stroke-width="1.5"></path><path d="M1445.99 107.79L1589.26 54.24" stroke="rgba(57, 87, 118, 1)" stroke-width="1.5"></path><path d="M1445.99 107.79L1543.45 -69.52" stroke="rgba(57, 87, 118, 1)" stroke-width="1.5"></path><path d="M1404.22 220.33L1404.22 220.33" stroke="rgba(57, 87, 118, 1)" stroke-width="1.5"></path><path d="M1404.22 220.33L1418.01 348.1" stroke="rgba(57, 87, 118, 1)" stroke-width="1.5"></path><path d="M1404.22 220.33L1269.69 364.95" stroke="rgba(57, 87, 118, 1)" stroke-width="1.5"></path><path d="M1404.22 220.33L1559.69 360.29" stroke="rgba(57, 87, 118, 1)" stroke-width="1.5"></path><path d="M1418.01 348.1L1418.01 348.1" stroke="rgba(57, 87, 118, 1)" stroke-width="1.5"></path><path d="M1418.01 348.1L1559.69 360.29" stroke="rgba(57, 87, 118, 1)" stroke-width="1.5"></path><path d="M1422.03 644.34L1422.03 644.34" stroke="rgba(57, 87, 118, 1)" stroke-width="1.5"></path><path d="M1422.03 644.34L1545.42 524.93" stroke="rgba(57, 87, 118, 1)" stroke-width="1.5"></path><path d="M1422.03 644.34L1588.56 697.11" stroke="rgba(57, 87, 118, 1)" stroke-width="1.5"></path><path d="M1422.03 644.34L1239.5 520.53" stroke="rgba(57, 87, 118, 1)" stroke-width="1.5"></path><path d="M1422.03 644.34L1159 703.1" stroke="rgba(57, 87, 118, 1)" stroke-width="1.5"></path><path d="M1422.03 644.34L1418.01 348.1" stroke="rgba(57, 87, 118, 1)" stroke-width="1.5"></path><path d="M1543.45 -69.52L1543.45 -69.52" stroke="rgba(57, 87, 118, 1)" stroke-width="1.5"></path><path d="M1543.45 -69.52L1589.26 54.24" stroke="rgba(57, 87, 118, 1)" stroke-width="1.5"></path><path d="M1543.45 -69.52L1298.98 -70.58" stroke="rgba(57, 87, 118, 1)" stroke-width="1.5"></path><path d="M1543.45 -69.52L1404.22 220.33" stroke="rgba(57, 87, 118, 1)" stroke-width="1.5"></path><path d="M1589.26 54.24L1589.26 54.24" stroke="rgba(57, 87, 118, 1)" stroke-width="1.5"></path><path d="M1589.26 54.24L1398.64 -97.03" stroke="rgba(57, 87, 118, 1)" stroke-width="1.5"></path><path d="M1559.69 360.29L1559.69 360.29" stroke="rgba(57, 87, 118, 1)" stroke-width="1.5"></path><path d="M1559.69 360.29L1545.42 524.93" stroke="rgba(57, 87, 118, 1)" stroke-width="1.5"></path><path d="M1559.69 360.29L1445.99 107.79" stroke="rgba(57, 87, 118, 1)" stroke-width="1.5"></path><path d="M1559.69 360.29L1269.69 364.95" stroke="rgba(57, 87, 118, 1)" stroke-width="1.5"></path><path d="M1559.69 360.29L1589.26 54.24" stroke="rgba(57, 87, 118, 1)" stroke-width="1.5"></path><path d="M1545.42 524.93L1545.42 524.93" stroke="rgba(57, 87, 118, 1)" stroke-width="1.5"></path><path d="M1545.42 524.93L1588.56 697.11" stroke="rgba(57, 87, 118, 1)" stroke-width="1.5"></path><path d="M1545.42 524.93L1418.01 348.1" stroke="rgba(57, 87, 118, 1)" stroke-width="1.5"></path><path d="M1545.42 524.93L1275.03 641.9" stroke="rgba(57, 87, 118, 1)" stroke-width="1.5"></path><path d="M1588.56 697.11L1588.56 697.11" stroke="rgba(57, 87, 118, 1)" stroke-width="1.5"></path><circle r="5" cx="-94.02" cy="343.59" fill="rgba(57, 87, 118, 1)"></circle><circle r="5" cx="-75.31" cy="493.83" fill="rgba(57, 87, 118, 1)"></circle><circle r="5" cx="-78.04" cy="705.26" fill="rgba(57, 87, 118, 1)"></circle><circle r="5" cx="66.49" cy="375.29" fill="rgba(57, 87, 118, 1)"></circle><circle r="5" cx="99.89" cy="542.12" fill="rgba(57, 87, 118, 1)"></circle><circle r="5" cx="55.98" cy="687.55" fill="rgba(57, 87, 118, 1)"></circle><circle r="5" cx="250.86" cy="409.07" fill="rgba(57, 87, 118, 1)"></circle><circle r="5" cx="197.31" cy="540.51" fill="rgba(57, 87, 118, 1)"></circle><circle r="5" cx="188.47" cy="696.03" fill="rgba(57, 87, 118, 1)"></circle><circle r="5" cx="349.19" cy="362.41" fill="rgba(57, 87, 118, 1)"></circle><circle r="5" cx="387.37" cy="503.66" fill="rgba(57, 87, 118, 1)"></circle><circle r="5" cx="403.45" cy="687.06" fill="rgba(57, 87, 118, 1)"></circle><circle r="5" cx="520.71" cy="360.99" fill="rgba(57, 87, 118, 1)"></circle><circle r="5" cx="509.62" cy="553.68" fill="rgba(57, 87, 118, 1)"></circle><circle r="5" cx="534.67" cy="650.31" fill="rgba(57, 87, 118, 1)"></circle><circle r="5" cx="703.85" cy="223.18" fill="rgba(57, 87, 118, 1)"></circle><circle r="5" cx="649.58" cy="512.91" fill="rgba(57, 87, 118, 1)"></circle><circle r="5" cx="654.97" cy="651.89" fill="rgba(57, 87, 118, 1)"></circle><circle r="5" cx="836.09" cy="111.71" fill="rgba(57, 87, 118, 1)"></circle><circle r="5" cx="849.35" cy="261.13" fill="rgba(57, 87, 118, 1)"></circle><circle r="5" cx="813.05" cy="395.65" fill="rgba(57, 87, 118, 1)"></circle><circle r="5" cx="859.53" cy="666.35" fill="rgba(57, 87, 118, 1)"></circle><circle r="5" cx="945.4" cy="-89.28" fill="rgba(57, 87, 118, 1)"></circle><circle r="5" cx="971.3" cy="248.31" fill="rgba(57, 87, 118, 1)"></circle><circle r="5" cx="959.23" cy="339.69" fill="rgba(57, 87, 118, 1)"></circle><circle r="5" cx="985.93" cy="488.3" fill="rgba(57, 87, 118, 1)"></circle><circle r="5" cx="962.77" cy="658.52" fill="rgba(57, 87, 118, 1)"></circle><circle r="5" cx="1161.52" cy="71.61" fill="rgba(57, 87, 118, 1)"></circle><circle r="5" cx="1156.77" cy="257.26" fill="rgba(57, 87, 118, 1)"></circle><circle r="5" cx="1104.6" cy="411.4" fill="rgba(57, 87, 118, 1)"></circle><circle r="5" cx="1092.25" cy="505.16" fill="rgba(57, 87, 118, 1)"></circle><circle r="5" cx="1159" cy="703.1" fill="rgba(57, 87, 118, 1)"></circle><circle r="5" cx="1298.98" cy="-70.58" fill="rgba(57, 87, 118, 1)"></circle><circle r="5" cx="1251.06" cy="71.42" fill="rgba(57, 87, 118, 1)"></circle><circle r="5" cx="1262.67" cy="195.24" fill="rgba(57, 87, 118, 1)"></circle><circle r="5" cx="1269.69" cy="364.95" fill="rgba(57, 87, 118, 1)"></circle><circle r="5" cx="1239.5" cy="520.53" fill="rgba(57, 87, 118, 1)"></circle><circle r="5" cx="1275.03" cy="641.9" fill="rgba(57, 87, 118, 1)"></circle><circle r="5" cx="1398.64" cy="-97.03" fill="rgba(57, 87, 118, 1)"></circle><circle r="5" cx="1445.99" cy="107.79" fill="rgba(57, 87, 118, 1)"></circle><circle r="5" cx="1404.22" cy="220.33" fill="rgba(57, 87, 118, 1)"></circle><circle r="5" cx="1418.01" cy="348.1" fill="rgba(57, 87, 118, 1)"></circle><circle r="5" cx="1422.03" cy="644.34" fill="rgba(57, 87, 118, 1)"></circle><circle r="5" cx="1543.45" cy="-69.52" fill="rgba(57, 87, 118, 1)"></circle><circle r="5" cx="1589.26" cy="54.24" fill="rgba(57, 87, 118, 1)"></circle><circle r="5" cx="1559.69" cy="360.29" fill="rgba(57, 87, 118, 1)"></circle><circle r="5" cx="1545.42" cy="524.93" fill="rgba(57, 87, 118, 1)"></circle><circle r="5" cx="1588.56" cy="697.11" fill="rgba(57, 87, 118, 1)"></circle><path d="M1267.6 64.37L1267.6 64.37" stroke="hsl(218.79999999999995, 57.8%, 42.3%)" stroke-width="1.5"></path><path d="M1267.6 64.37L1265.43 -52.31" stroke="hsl(218.79999999999995, 57.8%, 42.3%)" stroke-width="1.5"></path><path d="M1267.6 64.37L1143.09 59.37" stroke="hsl(218.79999999999995, 57.8%, 42.3%)" stroke-width="1.5"></path><path d="M1266.39 393.52L1266.39 393.52" stroke="hsl(218.79999999999995, 57.8%, 42.3%)" stroke-width="1.5"></path><path d="M1266.39 393.52L1286.17 500.49" stroke="hsl(218.79999999999995, 57.8%, 42.3%)" stroke-width="1.5"></path><path d="M1266.39 393.52L1294.71 257.56" stroke="hsl(218.79999999999995, 57.8%, 42.3%)" stroke-width="1.5"></path><path d="M1266.39 393.52L1413.87 389.43" stroke="hsl(218.79999999999995, 57.8%, 42.3%)" stroke-width="1.5"></path><path d="M1286.17 500.49L1286.17 500.49" stroke="hsl(218.79999999999995, 57.8%, 42.3%)" stroke-width="1.5"></path><path d="M1286.17 500.49L1403.63 499.34" stroke="hsl(218.79999999999995, 57.8%, 42.3%)" stroke-width="1.5"></path><path d="M1286.17 500.49L1127.54 504.14" stroke="hsl(218.79999999999995, 57.8%, 42.3%)" stroke-width="1.5"></path><path d="M1286.17 500.49L1413.87 389.43" stroke="hsl(218.79999999999995, 57.8%, 42.3%)" stroke-width="1.5"></path><path d="M1286.17 500.49L1310.53 686.48" stroke="hsl(218.79999999999995, 57.8%, 42.3%)" stroke-width="1.5"></path><path d="M1286.17 500.49L1095.98 405.54" stroke="hsl(218.79999999999995, 57.8%, 42.3%)" stroke-width="1.5"></path><path d="M1451.74 -110.85L1451.74 -110.85" stroke="hsl(218.79999999999995, 57.8%, 42.3%)" stroke-width="1.5"></path><path d="M1451.74 -110.85L1575.59 -88.5" stroke="hsl(218.79999999999995, 57.8%, 42.3%)" stroke-width="1.5"></path><path d="M1451.74 -110.85L1265.43 -52.31" stroke="hsl(218.79999999999995, 57.8%, 42.3%)" stroke-width="1.5"></path><path d="M1451.74 -110.85L1434.17 102.92" stroke="hsl(218.79999999999995, 57.8%, 42.3%)" stroke-width="1.5"></path><path d="M1451.74 -110.85L1608.36 57.28" stroke="hsl(218.79999999999995, 57.8%, 42.3%)" stroke-width="1.5"></path><path d="M1413.87 389.43L1413.87 389.43" stroke="hsl(218.79999999999995, 57.8%, 42.3%)" stroke-width="1.5"></path><path d="M1413.87 389.43L1403.63 499.34" stroke="hsl(218.79999999999995, 57.8%, 42.3%)" stroke-width="1.5"></path><path d="M1413.87 389.43L1442.65 260.93" stroke="hsl(218.79999999999995, 57.8%, 42.3%)" stroke-width="1.5"></path><path d="M1585.84 676.68L1585.84 676.68" stroke="hsl(218.79999999999995, 57.8%, 42.3%)" stroke-width="1.5"></path><path d="M1585.84 676.68L1577.27 539.75" stroke="hsl(218.79999999999995, 57.8%, 42.3%)" stroke-width="1.5"></path><path d="M1585.84 676.68L1403.63 499.34" stroke="hsl(218.79999999999995, 57.8%, 42.3%)" stroke-width="1.5"></path><path d="M-70.97 504.54L-70.97 504.54" stroke="hsl(218.79999999999995, 57.8%, 42.3%)" stroke-width="1.5"></path><path d="M-70.97 504.54L90.03 510.98" stroke="hsl(218.79999999999995, 57.8%, 42.3%)" stroke-width="1.5"></path><path d="M-70.97 504.54L54.54 665.62" stroke="hsl(218.79999999999995, 57.8%, 42.3%)" stroke-width="1.5"></path><path d="M-70.97 504.54L248.18 533.4" stroke="hsl(218.79999999999995, 57.8%, 42.3%)" stroke-width="1.5"></path><path d="M90.03 510.98L90.03 510.98" stroke="hsl(218.79999999999995, 57.8%, 42.3%)" stroke-width="1.5"></path><path d="M90.03 510.98L54.54 665.62" stroke="hsl(218.79999999999995, 57.8%, 42.3%)" stroke-width="1.5"></path><path d="M90.03 510.98L248.18 533.4" stroke="hsl(218.79999999999995, 57.8%, 42.3%)" stroke-width="1.5"></path><path d="M90.03 510.98L245.38 656.08" stroke="hsl(218.79999999999995, 57.8%, 42.3%)" stroke-width="1.5"></path><path d="M90.03 510.98L382.99 519.41" stroke="hsl(218.79999999999995, 57.8%, 42.3%)" stroke-width="1.5"></path><path d="M54.54 665.62L54.54 665.62" stroke="hsl(218.79999999999995, 57.8%, 42.3%)" stroke-width="1.5"></path><path d="M54.54 665.62L245.38 656.08" stroke="hsl(218.79999999999995, 57.8%, 42.3%)" stroke-width="1.5"></path><path d="M54.54 665.62L248.18 533.4" stroke="hsl(218.79999999999995, 57.8%, 42.3%)" stroke-width="1.5"></path><path d="M54.54 665.62L362.02 652.17" stroke="hsl(218.79999999999995, 57.8%, 42.3%)" stroke-width="1.5"></path><path d="M248.18 533.4L248.18 533.4" stroke="hsl(218.79999999999995, 57.8%, 42.3%)" stroke-width="1.5"></path><path d="M248.18 533.4L245.38 656.08" stroke="hsl(218.79999999999995, 57.8%, 42.3%)" stroke-width="1.5"></path><path d="M248.18 533.4L382.99 519.41" stroke="hsl(218.79999999999995, 57.8%, 42.3%)" stroke-width="1.5"></path><path d="M248.18 533.4L362.02 652.17" stroke="hsl(218.79999999999995, 57.8%, 42.3%)" stroke-width="1.5"></path><path d="M245.38 656.08L245.38 656.08" stroke="hsl(218.79999999999995, 57.8%, 42.3%)" stroke-width="1.5"></path><path d="M245.38 656.08L362.02 652.17" stroke="hsl(218.79999999999995, 57.8%, 42.3%)" stroke-width="1.5"></path><path d="M245.38 656.08L382.99 519.41" stroke="hsl(218.79999999999995, 57.8%, 42.3%)" stroke-width="1.5"></path><path d="M245.38 656.08L531.41 640.17" stroke="hsl(218.79999999999995, 57.8%, 42.3%)" stroke-width="1.5"></path><path d="M382.99 519.41L382.99 519.41" stroke="hsl(218.79999999999995, 57.8%, 42.3%)" stroke-width="1.5"></path><path d="M382.99 519.41L512.71 520.15" stroke="hsl(218.79999999999995, 57.8%, 42.3%)" stroke-width="1.5"></path><path d="M382.99 519.41L362.02 652.17" stroke="hsl(218.79999999999995, 57.8%, 42.3%)" stroke-width="1.5"></path><path d="M362.02 652.17L362.02 652.17" stroke="hsl(218.79999999999995, 57.8%, 42.3%)" stroke-width="1.5"></path><path d="M362.02 652.17L531.41 640.17" stroke="hsl(218.79999999999995, 57.8%, 42.3%)" stroke-width="1.5"></path><path d="M362.02 652.17L512.71 520.15" stroke="hsl(218.79999999999995, 57.8%, 42.3%)" stroke-width="1.5"></path><path d="M512.71 520.15L512.71 520.15" stroke="hsl(218.79999999999995, 57.8%, 42.3%)" stroke-width="1.5"></path><path d="M512.71 520.15L531.41 640.17" stroke="hsl(218.79999999999995, 57.8%, 42.3%)" stroke-width="1.5"></path><path d="M512.71 520.15L681.44 506.8" stroke="hsl(218.79999999999995, 57.8%, 42.3%)" stroke-width="1.5"></path><path d="M512.71 520.15L711.67 656.66" stroke="hsl(218.79999999999995, 57.8%, 42.3%)" stroke-width="1.5"></path><path d="M531.41 640.17L531.41 640.17" stroke="hsl(218.79999999999995, 57.8%, 42.3%)" stroke-width="1.5"></path><path d="M531.41 640.17L711.67 656.66" stroke="hsl(218.79999999999995, 57.8%, 42.3%)" stroke-width="1.5"></path><path d="M681.44 506.8L681.44 506.8" stroke="hsl(218.79999999999995, 57.8%, 42.3%)" stroke-width="1.5"></path><path d="M681.44 506.8L711.67 656.66" stroke="hsl(218.79999999999995, 57.8%, 42.3%)" stroke-width="1.5"></path><path d="M681.44 506.8L792.88 381.11" stroke="hsl(218.79999999999995, 57.8%, 42.3%)" stroke-width="1.5"></path><path d="M711.67 656.66L711.67 656.66" stroke="hsl(218.79999999999995, 57.8%, 42.3%)" stroke-width="1.5"></path><path d="M711.67 656.66L846.39 708.17" stroke="hsl(218.79999999999995, 57.8%, 42.3%)" stroke-width="1.5"></path><path d="M711.67 656.66L938.51 668.96" stroke="hsl(218.79999999999995, 57.8%, 42.3%)" stroke-width="1.5"></path><path d="M792.88 381.11L792.88 381.11" stroke="hsl(218.79999999999995, 57.8%, 42.3%)" stroke-width="1.5"></path><path d="M792.88 381.11L988.53 409.64" stroke="hsl(218.79999999999995, 57.8%, 42.3%)" stroke-width="1.5"></path><path d="M792.88 381.11L984.78 536.64" stroke="hsl(218.79999999999995, 57.8%, 42.3%)" stroke-width="1.5"></path><path d="M792.88 381.11L711.67 656.66" stroke="hsl(218.79999999999995, 57.8%, 42.3%)" stroke-width="1.5"></path><path d="M846.39 708.17L846.39 708.17" stroke="hsl(218.79999999999995, 57.8%, 42.3%)" stroke-width="1.5"></path><path d="M846.39 708.17L938.51 668.96" stroke="hsl(218.79999999999995, 57.8%, 42.3%)" stroke-width="1.5"></path><path d="M846.39 708.17L984.78 536.64" stroke="hsl(218.79999999999995, 57.8%, 42.3%)" stroke-width="1.5"></path><path d="M846.39 708.17L681.44 506.8" stroke="hsl(218.79999999999995, 57.8%, 42.3%)" stroke-width="1.5"></path><path d="M846.39 708.17L1157.06 671.94" stroke="hsl(218.79999999999995, 57.8%, 42.3%)" stroke-width="1.5"></path><path d="M846.39 708.17L531.41 640.17" stroke="hsl(218.79999999999995, 57.8%, 42.3%)" stroke-width="1.5"></path><path d="M988.53 409.64L988.53 409.64" stroke="hsl(218.79999999999995, 57.8%, 42.3%)" stroke-width="1.5"></path><path d="M988.53 409.64L1095.98 405.54" stroke="hsl(218.79999999999995, 57.8%, 42.3%)" stroke-width="1.5"></path><path d="M988.53 409.64L984.78 536.64" stroke="hsl(218.79999999999995, 57.8%, 42.3%)" stroke-width="1.5"></path><path d="M988.53 409.64L1127.54 504.14" stroke="hsl(218.79999999999995, 57.8%, 42.3%)" stroke-width="1.5"></path><path d="M988.53 409.64L1137.32 193.52" stroke="hsl(218.79999999999995, 57.8%, 42.3%)" stroke-width="1.5"></path><path d="M984.78 536.64L984.78 536.64" stroke="hsl(218.79999999999995, 57.8%, 42.3%)" stroke-width="1.5"></path><path d="M984.78 536.64L938.51 668.96" stroke="hsl(218.79999999999995, 57.8%, 42.3%)" stroke-width="1.5"></path><path d="M938.51 668.96L938.51 668.96" stroke="hsl(218.79999999999995, 57.8%, 42.3%)" stroke-width="1.5"></path><path d="M938.51 668.96L1157.06 671.94" stroke="hsl(218.79999999999995, 57.8%, 42.3%)" stroke-width="1.5"></path><path d="M1143.09 59.37L1143.09 59.37" stroke="hsl(218.79999999999995, 57.8%, 42.3%)" stroke-width="1.5"></path><path d="M1143.09 59.37L1137.32 193.52" stroke="hsl(218.79999999999995, 57.8%, 42.3%)" stroke-width="1.5"></path><path d="M1143.09 59.37L1265.43 -52.31" stroke="hsl(218.79999999999995, 57.8%, 42.3%)" stroke-width="1.5"></path><path d="M1137.32 193.52L1137.32 193.52" stroke="hsl(218.79999999999995, 57.8%, 42.3%)" stroke-width="1.5"></path><path d="M1137.32 193.52L1294.71 257.56" stroke="hsl(218.79999999999995, 57.8%, 42.3%)" stroke-width="1.5"></path><path d="M1137.32 193.52L1267.6 64.37" stroke="hsl(218.79999999999995, 57.8%, 42.3%)" stroke-width="1.5"></path><path d="M1137.32 193.52L1095.98 405.54" stroke="hsl(218.79999999999995, 57.8%, 42.3%)" stroke-width="1.5"></path><path d="M1137.32 193.52L1266.39 393.52" stroke="hsl(218.79999999999995, 57.8%, 42.3%)" stroke-width="1.5"></path><path d="M1095.98 405.54L1095.98 405.54" stroke="hsl(218.79999999999995, 57.8%, 42.3%)" stroke-width="1.5"></path><path d="M1095.98 405.54L1127.54 504.14" stroke="hsl(218.79999999999995, 57.8%, 42.3%)" stroke-width="1.5"></path><path d="M1095.98 405.54L1266.39 393.52" stroke="hsl(218.79999999999995, 57.8%, 42.3%)" stroke-width="1.5"></path><path d="M1095.98 405.54L984.78 536.64" stroke="hsl(218.79999999999995, 57.8%, 42.3%)" stroke-width="1.5"></path><path d="M1127.54 504.14L1127.54 504.14" stroke="hsl(218.79999999999995, 57.8%, 42.3%)" stroke-width="1.5"></path><path d="M1127.54 504.14L984.78 536.64" stroke="hsl(218.79999999999995, 57.8%, 42.3%)" stroke-width="1.5"></path><path d="M1127.54 504.14L1157.06 671.94" stroke="hsl(218.79999999999995, 57.8%, 42.3%)" stroke-width="1.5"></path><path d="M1157.06 671.94L1157.06 671.94" stroke="hsl(218.79999999999995, 57.8%, 42.3%)" stroke-width="1.5"></path><path d="M1157.06 671.94L1310.53 686.48" stroke="hsl(218.79999999999995, 57.8%, 42.3%)" stroke-width="1.5"></path><path d="M1157.06 671.94L1286.17 500.49" stroke="hsl(218.79999999999995, 57.8%, 42.3%)" stroke-width="1.5"></path><path d="M1157.06 671.94L984.78 536.64" stroke="hsl(218.79999999999995, 57.8%, 42.3%)" stroke-width="1.5"></path><path d="M1157.06 671.94L1095.98 405.54" stroke="hsl(218.79999999999995, 57.8%, 42.3%)" stroke-width="1.5"></path><path d="M1265.43 -52.31L1265.43 -52.31" stroke="hsl(218.79999999999995, 57.8%, 42.3%)" stroke-width="1.5"></path><path d="M1265.43 -52.31L1434.17 102.92" stroke="hsl(218.79999999999995, 57.8%, 42.3%)" stroke-width="1.5"></path><path d="M1265.43 -52.31L1137.32 193.52" stroke="hsl(218.79999999999995, 57.8%, 42.3%)" stroke-width="1.5"></path><path d="M1294.71 257.56L1294.71 257.56" stroke="hsl(218.79999999999995, 57.8%, 42.3%)" stroke-width="1.5"></path><path d="M1294.71 257.56L1442.65 260.93" stroke="hsl(218.79999999999995, 57.8%, 42.3%)" stroke-width="1.5"></path><path d="M1310.53 686.48L1310.53 686.48" stroke="hsl(218.79999999999995, 57.8%, 42.3%)" stroke-width="1.5"></path><path d="M1310.53 686.48L1403.63 499.34" stroke="hsl(218.79999999999995, 57.8%, 42.3%)" stroke-width="1.5"></path><path d="M1310.53 686.48L1127.54 504.14" stroke="hsl(218.79999999999995, 57.8%, 42.3%)" stroke-width="1.5"></path><path d="M1310.53 686.48L1585.84 676.68" stroke="hsl(218.79999999999995, 57.8%, 42.3%)" stroke-width="1.5"></path><path d="M1310.53 686.48L1266.39 393.52" stroke="hsl(218.79999999999995, 57.8%, 42.3%)" stroke-width="1.5"></path><path d="M1434.17 102.92L1434.17 102.92" stroke="hsl(218.79999999999995, 57.8%, 42.3%)" stroke-width="1.5"></path><path d="M1434.17 102.92L1442.65 260.93" stroke="hsl(218.79999999999995, 57.8%, 42.3%)" stroke-width="1.5"></path><path d="M1434.17 102.92L1267.6 64.37" stroke="hsl(218.79999999999995, 57.8%, 42.3%)" stroke-width="1.5"></path><path d="M1434.17 102.92L1608.36 57.28" stroke="hsl(218.79999999999995, 57.8%, 42.3%)" stroke-width="1.5"></path><path d="M1434.17 102.92L1600.5 208.71" stroke="hsl(218.79999999999995, 57.8%, 42.3%)" stroke-width="1.5"></path><path d="M1442.65 260.93L1442.65 260.93" stroke="hsl(218.79999999999995, 57.8%, 42.3%)" stroke-width="1.5"></path><path d="M1403.63 499.34L1403.63 499.34" stroke="hsl(218.79999999999995, 57.8%, 42.3%)" stroke-width="1.5"></path><path d="M1403.63 499.34L1266.39 393.52" stroke="hsl(218.79999999999995, 57.8%, 42.3%)" stroke-width="1.5"></path><path d="M1575.59 -88.5L1575.59 -88.5" stroke="hsl(218.79999999999995, 57.8%, 42.3%)" stroke-width="1.5"></path><path d="M1575.59 -88.5L1608.36 57.28" stroke="hsl(218.79999999999995, 57.8%, 42.3%)" stroke-width="1.5"></path><path d="M1608.36 57.28L1608.36 57.28" stroke="hsl(218.79999999999995, 57.8%, 42.3%)" stroke-width="1.5"></path><path d="M1608.36 57.28L1600.5 208.71" stroke="hsl(218.79999999999995, 57.8%, 42.3%)" stroke-width="1.5"></path><path d="M1600.5 208.71L1600.5 208.71" stroke="hsl(218.79999999999995, 57.8%, 42.3%)" stroke-width="1.5"></path><path d="M1600.5 208.71L1442.65 260.93" stroke="hsl(218.79999999999995, 57.8%, 42.3%)" stroke-width="1.5"></path><path d="M1599.27 399.92L1599.27 399.92" stroke="hsl(218.79999999999995, 57.8%, 42.3%)" stroke-width="1.5"></path><path d="M1599.27 399.92L1577.27 539.75" stroke="hsl(218.79999999999995, 57.8%, 42.3%)" stroke-width="1.5"></path><path d="M1577.27 539.75L1577.27 539.75" stroke="hsl(218.79999999999995, 57.8%, 42.3%)" stroke-width="1.5"></path><circle r="25" cx="1267.6" cy="64.37" fill="url(&quot;#SvgjsRadialGradient1065&quot;)"></circle><circle r="25" cx="1266.39" cy="393.52" fill="url(&quot;#SvgjsRadialGradient1065&quot;)"></circle><circle r="25" cx="1286.17" cy="500.49" fill="url(&quot;#SvgjsRadialGradient1065&quot;)"></circle><circle r="25" cx="1451.74" cy="-110.85" fill="url(&quot;#SvgjsRadialGradient1065&quot;)"></circle><circle r="25" cx="1413.87" cy="389.43" fill="url(&quot;#SvgjsRadialGradient1065&quot;)"></circle><circle r="25" cx="1585.84" cy="676.68" fill="url(&quot;#SvgjsRadialGradient1065&quot;)"></circle><circle r="5" cx="-70.97" cy="504.54" fill="#91a2c1"></circle><circle r="5" cx="90.03" cy="510.98" fill="#91a2c1"></circle><circle r="5" cx="54.54" cy="665.62" fill="#91a2c1"></circle><circle r="5" cx="248.18" cy="533.4" fill="#91a2c1"></circle><circle r="5" cx="245.38" cy="656.08" fill="#91a2c1"></circle><circle r="5" cx="382.99" cy="519.41" fill="#91a2c1"></circle><circle r="5" cx="362.02" cy="652.17" fill="#91a2c1"></circle><circle r="5" cx="512.71" cy="520.15" fill="#91a2c1"></circle><circle r="5" cx="531.41" cy="640.17" fill="#91a2c1"></circle><circle r="5" cx="681.44" cy="506.8" fill="#91a2c1"></circle><circle r="5" cx="711.67" cy="656.66" fill="#91a2c1"></circle><circle r="5" cx="792.88" cy="381.11" fill="#91a2c1"></circle><circle r="5" cx="846.39" cy="708.17" fill="#91a2c1"></circle><circle r="5" cx="988.53" cy="409.64" fill="#91a2c1"></circle><circle r="5" cx="984.78" cy="536.64" fill="#91a2c1"></circle><circle r="5" cx="938.51" cy="668.96" fill="#91a2c1"></circle><circle r="5" cx="1143.09" cy="59.37" fill="#91a2c1"></circle><circle r="5" cx="1137.32" cy="193.52" fill="#91a2c1"></circle><circle r="5" cx="1095.98" cy="405.54" fill="#91a2c1"></circle><circle r="5" cx="1127.54" cy="504.14" fill="#91a2c1"></circle><circle r="5" cx="1157.06" cy="671.94" fill="#91a2c1"></circle><circle r="5" cx="1265.43" cy="-52.31" fill="#91a2c1"></circle><circle r="5" cx="1294.71" cy="257.56" fill="#91a2c1"></circle><circle r="5" cx="1310.53" cy="686.48" fill="#91a2c1"></circle><circle r="5" cx="1434.17" cy="102.92" fill="#91a2c1"></circle><circle r="5" cx="1442.65" cy="260.93" fill="#91a2c1"></circle><circle r="5" cx="1403.63" cy="499.34" fill="#91a2c1"></circle><circle r="5" cx="1575.59" cy="-88.5" fill="#91a2c1"></circle><circle r="5" cx="1608.36" cy="57.28" fill="#91a2c1"></circle><circle r="5" cx="1600.5" cy="208.71" fill="#91a2c1"></circle><circle r="5" cx="1599.27" cy="399.92" fill="#91a2c1"></circle><circle r="5" cx="1577.27" cy="539.75" fill="#91a2c1"></circle></g><defs><mask id="SvgjsMask1064"><rect width="1440" height="560" fill="#ffffff"></rect></mask><radialGradient id="SvgjsRadialGradient1065"><stop stop-color="#ffffff" offset="0.1"></stop><stop stop-color="rgba(35, 69, 131, 1)" offset="0.2"></stop><stop stop-color="rgba(35, 69, 131, 0)" offset="1"></stop></radialGradient></defs></svg>