<?xml version="1.0" encoding="UTF-8" standalone="no"?>
<!DOCTYPE svg PUBLIC "-//W3C//DTD SVG 1.1//EN" "http://www.w3.org/Graphics/SVG/1.1/DTD/svg11.dtd">
<svg xmlns="http://www.w3.org/2000/svg" version="1.1" viewBox="0.00 0.00 1432.00 1432.00">
<g stroke-width="2.00" fill="none" stroke-linecap="butt">
<path stroke="#989dd1" vector-effect="non-scaling-stroke" d="
  M 1103.76 756.16
  Q 1103.78 741.18 1093.98 729.88
  Q 1089.87 725.13 1083.04 721.38
  Q 1072.09 715.37 1059.96 712.22
  Q 1049.14 709.41 1049.11 709.40
  Q 1040.28 706.53 1032.21 701.78
  Q 1028.46 699.57 1026.82 696.41
  C 1023.37 689.78 1028.83 682.82 1035.49 682.04
  Q 1048.10 680.57 1061.02 685.45
  Q 1073.18 690.04 1084.90 695.62
  Q 1088.43 697.30 1090.41 694.16
  C 1093.32 689.54 1094.57 684.17 1097.15 679.62
  C 1099.20 675.99 1102.25 671.76 1102.18 667.55
  A 1.32 1.29 -68.4 0 0 1101.80 666.65
  Q 1099.94 664.79 1097.51 663.77
  Q 1088.81 660.11 1079.99 656.72
  C 1065.72 651.22 1050.07 650.44 1034.76 651.38
  C 1017.41 652.44 997.14 661.39 989.07 677.63
  C 981.06 693.74 984.77 713.66 998.77 724.88
  Q 1004.36 729.36 1015.46 733.54
  Q 1029.25 738.74 1043.55 742.30
  C 1050.42 744.00 1054.63 745.96 1059.38 750.46
  C 1063.72 754.59 1063.54 762.13 1058.84 765.94
  C 1051.40 771.97 1041.48 771.04 1032.71 769.13
  Q 1028.27 768.17 1020.60 764.98
  C 1014.67 762.52 1009.25 760.71 1003.82 756.96
  C 999.67 754.08 991.20 745.64 987.60 753.87
  Q 982.82 764.79 976.66 774.98
  Q 975.73 776.52 976.22 778.06
  Q 976.37 778.53 976.80 778.78
  Q 979.77 780.50 989.63 786.90
  C 995.79 790.90 1004.05 793.49 1011.82 796.11
  C 1030.04 802.25 1051.90 803.80 1070.27 797.42
  C 1088.95 790.94 1103.72 777.28 1103.76 756.16"
/>
<path stroke="#989dd1" vector-effect="non-scaling-stroke" d="
  M 1120.15 688.39
  Q 1119.18 693.51 1119.68 698.76
  Q 1121.29 715.42 1133.41 725.16
  Q 1137.47 728.42 1145.31 731.50
  C 1154.75 735.20 1164.55 739.08 1174.45 741.28
  C 1181.63 742.87 1193.32 746.56 1196.20 754.23
  C 1198.22 759.60 1195.81 765.39 1190.72 768.11
  C 1182.08 772.73 1166.96 769.99 1158.20 766.27
  Q 1153.07 764.10 1148.55 762.29
  Q 1139.88 758.82 1132.62 752.84
  C 1130.79 751.33 1128.44 750.64 1126.28 749.73
  A 1.58 1.58 0.0 0 0 1124.26 750.47
  L 1110.56 777.26
  Q 1110.23 777.91 1110.85 778.29
  C 1118.52 783.02 1126.30 788.62 1134.59 791.77
  Q 1139.26 793.54 1146.02 795.88
  C 1161.42 801.23 1178.08 802.87 1193.71 800.22
  C 1206.29 798.08 1220.12 792.23 1228.77 782.45
  C 1232.00 778.80 1233.00 777.86 1234.44 773.71
  C 1239.30 759.71 1239.57 743.70 1230.22 731.77
  Q 1225.12 725.26 1218.44 721.57
  Q 1206.32 714.89 1190.73 711.13
  Q 1183.16 709.31 1179.49 707.72
  Q 1175.16 705.84 1168.82 702.71
  Q 1160.34 698.53 1161.30 690.58
  C 1162.94 677.03 1186.60 682.31 1194.57 685.22
  Q 1207.90 690.07 1220.82 695.87
  Q 1223.56 697.10 1224.52 694.99
  Q 1228.69 685.75 1231.80 680.37
  C 1233.99 676.59 1235.22 673.31 1236.66 669.50
  C 1237.33 667.73 1236.77 666.11 1234.98 665.24
  Q 1224.17 660.03 1212.84 656.12
  Q 1203.94 653.05 1195.35 652.06
  C 1174.71 649.67 1151.59 650.62 1134.69 664.18
  Q 1122.95 673.59 1120.15 688.39"
/>
<path stroke="#989dd1" vector-effect="non-scaling-stroke" d="
  M 762.90 762.32
  C 769.02 773.61 774.63 785.11 780.54 796.50
  C 781.86 799.06 783.02 799.93 785.87 799.95
  Q 804.64 800.08 824.36 800.31
  A 1.19 1.18 81.6 0 0 825.50 798.77
  C 825.17 797.74 824.75 796.38 824.15 795.40
  Q 811.90 775.47 799.11 755.89
  Q 797.87 753.99 797.17 752.37
  A 1.63 1.62 -26.5 0 1 797.86 750.32
  C 820.26 737.54 824.48 716.51 821.63 692.27
  C 820.09 679.17 809.65 666.41 798.24 660.82
  C 786.89 655.25 776.70 652.95 763.31 652.75
  Q 729.60 652.22 695.87 652.94
  Q 693.98 652.98 693.97 655.25
  Q 693.76 726.84 694.00 797.34
  A 2.75 2.75 0.0 0 0 696.73 800.08
  L 730.57 800.34
  Q 733.21 800.36 733.23 797.71
  Q 733.32 779.81 732.99 762.25
  C 732.95 759.95 733.96 758.98 736.28 758.91
  Q 747.13 758.55 757.99 759.16
  C 760.81 759.32 761.64 759.98 762.90 762.32"
/>
<path stroke="#989dd1" vector-effect="non-scaling-stroke" d="
  M 962.59 679.75
  C 963.59 671.68 962.75 663.88 963.05 655.65
  A 2.84 2.83 -89.0 0 0 960.22 652.71
  L 847.87 652.49
  A 2.14 2.14 0.0 0 0 845.73 654.63
  L 845.80 796.99
  Q 845.80 800.19 848.99 800.19
  L 962.67 800.28
  A 2.13 2.13 0.0 0 0 964.81 798.14
  L 964.73 772.65
  A 2.15 2.13 5.4 0 0 962.98 770.55
  Q 959.86 769.97 956.00 769.97
  Q 921.16 769.89 886.88 770.02
  A 1.89 1.89 0.0 0 1 884.98 768.12
  L 884.99 742.99
  A 1.12 1.11 88.9 0 1 886.05 741.88
  C 908.26 740.95 930.47 741.29 952.60 741.21
  A 2.47 2.46 -89.9 0 0 955.06 738.75
  L 955.10 714.06
  A 2.79 2.79 0.0 0 0 952.32 711.27
  L 887.60 710.96
  Q 885.01 710.95 885.01 708.35
  L 885.01 684.26
  A 1.38 1.37 -0.2 0 1 886.38 682.89
  Q 922.94 682.56 959.50 682.27
  Q 962.28 682.24 962.59 679.75"
/>
<path stroke="#bcc2ec" vector-effect="non-scaling-stroke" d="
  M 474.00 770.72
  C 466.19 770.54 457.68 769.74 450.43 766.51
  Q 445.12 764.14 442.55 763.23
  C 433.97 760.21 428.30 755.33 421.27 750.76
  C 419.19 749.41 418.33 749.41 417.06 751.69
  Q 410.96 762.71 406.14 774.35
  C 405.32 776.34 403.86 778.45 406.51 779.98
  Q 412.81 783.63 416.72 786.04
  Q 422.11 789.37 426.06 790.99
  Q 442.13 797.59 454.24 799.75
  Q 465.85 801.81 481.17 800.67
  Q 487.64 800.19 493.60 798.25
  C 505.28 794.44 516.17 789.34 523.25 779.31
  Q 528.13 772.39 529.47 763.65
  C 530.86 754.57 530.23 744.51 525.24 736.49
  C 517.86 724.61 506.66 718.78 493.41 714.22
  Q 491.09 713.42 481.36 711.01
  Q 469.78 708.15 459.35 702.19
  C 455.06 699.74 451.28 694.93 452.70 689.91
  C 455.72 679.25 471.86 681.55 479.52 682.70
  C 487.33 683.87 495.33 687.99 503.02 690.88
  C 506.88 692.34 510.34 694.35 514.05 696.20
  Q 514.61 696.47 515.14 696.16
  Q 516.63 695.30 517.53 692.98
  Q 520.62 685.01 527.43 672.82
  C 530.55 667.24 527.52 665.53 522.80 663.44
  C 510.96 658.20 498.57 653.15 485.83 651.96
  Q 473.58 650.81 461.28 651.72
  C 451.49 652.44 443.58 655.07 435.25 659.60
  C 422.64 666.45 415.31 676.81 413.34 690.83
  C 411.73 702.23 416.41 715.77 424.97 723.58
  Q 429.81 727.99 434.17 729.86
  Q 441.00 732.79 462.62 739.96
  C 467.00 741.41 472.58 742.07 476.30 743.38
  Q 481.61 745.26 486.93 749.96
  C 492.12 754.54 491.21 763.67 485.59 767.28
  C 482.44 769.30 478.00 770.81 474.00 770.72"
/>
<path stroke="#bcc2ec" vector-effect="non-scaling-stroke" d="
  M 386.47 654.83
  A 1.99 1.99 0.0 0 0 384.48 652.84
  L 350.72 652.84
  A 1.99 1.99 0.0 0 0 348.73 654.83
  L 348.73 798.15
  A 1.99 1.99 0.0 0 0 350.72 800.14
  L 384.48 800.14
  A 1.99 1.99 0.0 0 0 386.47 798.15
  L 386.47 654.83"
/>
<path stroke="#bcc2ec" vector-effect="non-scaling-stroke" d="
  M 186.50 652.60
  Q 188.06 657.65 188.07 663.00
  Q 188.22 730.41 187.96 797.99
  A 1.98 1.97 2.0 0 0 189.81 799.97
  Q 192.15 800.12 195.00 800.13
  Q 215.25 800.21 235.49 800.13
  C 253.56 800.06 264.96 799.89 278.28 795.76
  C 308.17 786.49 329.27 760.73 329.17 729.24
  C 329.12 711.84 327.22 699.38 317.60 685.17
  Q 310.37 674.49 300.14 667.15
  C 287.24 657.88 268.13 652.68 252.51 652.72
  Q 230.93 652.78 209.34 652.76
  C 203.72 652.76 197.23 652.10 191.11 652.10
  Q 190.63 652.10 190.21 651.88
  Q 188.69 651.10 187.09 651.53
  A 0.85 0.84 74.2 0 0 186.50 652.60"
/>
<path stroke="#989dd1" vector-effect="non-scaling-stroke" d="
  M 591.54 761.22
  Q 591.58 759.03 593.77 759.06
  C 607.12 759.25 621.19 760.01 633.78 757.28
  Q 643.79 755.11 650.68 751.96
  Q 657.37 748.89 663.28 742.88
  Q 668.57 737.48 671.93 730.26
  C 677.27 718.77 680.26 701.81 675.67 689.38
  C 674.19 685.38 672.85 680.94 670.99 677.60
  C 663.79 664.65 650.78 657.76 636.71 654.41
  Q 630.71 652.98 621.66 652.80
  Q 587.41 652.12 553.24 652.81
  A 1.09 1.09 0.0 0 0 552.17 653.90
  L 552.17 798.84
  Q 552.17 799.35 552.66 799.48
  Q 554.31 799.89 556.75 799.96
  Q 572.12 800.37 588.92 800.20
  A 2.30 2.30 0.0 0 0 591.19 798.10
  C 592.26 785.88 591.31 773.10 591.54 761.22"
/>
<path stroke="#766ec0" vector-effect="non-scaling-stroke" d="
  M 188.93 652.50
  A 0.80 0.68 0.0 0 0 188.13 651.82
  A 0.80 0.68 0.0 0 0 187.33 652.50
  A 0.80 0.68 0.0 0 0 188.13 653.18
  A 0.80 0.68 0.0 0 0 188.93 652.50"
/>
<path stroke="#bcc2ec" vector-effect="non-scaling-stroke" d="
  M 226.24 686.00
  L 225.96 766.80
  A 3.33 3.33 0.0 0 0 229.28 770.14
  L 250.50 770.21
  A 40.01 39.97 -89.8 0 0 290.61 730.34
  L 290.63 722.90
  A 40.01 39.97 -89.8 0 0 250.80 682.75
  L 229.58 682.68
  A 3.33 3.33 0.0 0 0 226.24 686.00"
/>
<path stroke="#989dd1" vector-effect="non-scaling-stroke" d="
  M 591.63 684.17
  L 591.41 726.93
  A 1.77 1.77 0.0 0 0 593.17 728.71
  L 617.18 728.84
  A 22.58 20.29 0.3 0 0 639.86 708.67
  L 639.89 702.95
  A 22.58 20.29 0.3 0 0 617.42 682.54
  L 593.41 682.41
  A 1.77 1.77 0.0 0 0 591.63 684.17"
/>
<path stroke="#989dd1" vector-effect="non-scaling-stroke" d="
  M 733.29 684.14
  L 733.21 727.00
  A 1.72 1.72 0.0 0 0 734.93 728.72
  L 762.59 728.77
  A 22.02 20.11 0.1 0 0 784.64 708.69
  L 784.66 702.61
  A 22.02 20.11 0.1 0 0 762.67 682.47
  L 735.01 682.42
  A 1.72 1.72 0.0 0 0 733.29 684.14"
/>
</g>
<path fill="#def1fd" d="
  M 1106.83 761.09
  A 0.40 0.40 0.0 0 0 1107.53 761.40
  C 1113.28 754.38 1115.35 745.34 1119.60 737.76
  A 2.03 2.03 0.0 0 1 1122.71 737.22
  C 1128.95 742.66 1135.31 748.35 1142.69 752.06
  C 1153.52 757.50 1162.88 761.70 1175.25 762.37
  C 1178.27 762.54 1187.94 762.59 1187.00 757.57
  C 1186.09 752.77 1176.60 750.51 1171.85 749.44
  Q 1167.66 748.50 1163.76 747.03
  C 1155.61 743.96 1145.75 741.52 1139.13 738.61
  C 1127.67 733.57 1117.71 725.50 1113.61 713.26
  C 1111.42 706.71 1109.09 698.65 1109.90 691.73
  Q 1113.37 662.28 1140.27 650.75
  Q 1149.36 646.85 1159.70 644.59
  C 1163.82 643.69 1168.99 643.72 1173.70 643.13
  C 1178.07 642.58 1182.21 643.59 1186.58 643.72
  Q 1190.93 643.86 1193.84 644.47
  Q 1206.34 647.10 1218.44 651.15
  C 1226.83 653.96 1234.82 659.34 1242.75 663.54
  Q 1244.98 664.73 1243.69 666.91
  Q 1238.13 676.25 1234.08 686.64
  Q 1233.00 689.42 1230.94 692.64
  Q 1226.37 699.76 1224.75 708.06
  A 0.67 0.66 -67.8 0 1 1223.73 708.49
  C 1221.06 706.69 1218.47 704.88 1215.51 703.51
  C 1206.66 699.41 1196.65 694.14 1188.18 691.94
  Q 1178.36 689.38 1168.08 689.93
  C 1166.27 690.03 1165.16 691.13 1165.62 692.94
  C 1166.76 697.40 1179.18 700.91 1183.24 701.81
  C 1187.90 702.85 1192.22 703.70 1196.78 705.57
  C 1203.05 708.14 1210.60 710.33 1215.67 712.94
  C 1221.20 715.77 1225.03 719.55 1229.28 723.32
  C 1235.66 728.95 1239.77 738.34 1241.72 746.26
  C 1244.52 757.66 1241.54 769.99 1235.93 780.21
  Q 1232.45 786.55 1226.40 791.85
  Q 1219.14 798.21 1211.77 801.51
  Q 1198.73 807.34 1182.54 808.47
  C 1176.11 808.93 1168.69 808.19 1161.67 807.69
  Q 1157.54 807.41 1153.45 806.28
  Q 1145.75 804.15 1138.03 802.19
  C 1131.56 800.55 1125.88 796.95 1119.96 794.01
  Q 1110.06 789.11 1102.50 781.09
  Q 1102.12 780.70 1101.74 781.09
  C 1098.56 784.41 1095.70 788.35 1092.60 791.16
  Q 1084.99 798.04 1078.25 801.15
  Q 1064.13 807.67 1046.44 808.62
  C 1040.02 808.97 1032.68 807.97 1025.75 807.64
  C 1020.62 807.40 1014.71 804.95 1010.07 803.97
  Q 1001.07 802.07 998.36 800.65
  C 988.83 795.66 979.51 791.62 971.24 784.81
  Q 969.81 783.64 969.80 785.49
  L 969.64 806.81
  A 0.95 0.95 0.0 0 1 968.69 807.75
  L 776.75 807.77
  A 1.82 1.81 -11.5 0 1 775.08 806.67
  C 771.17 797.57 765.88 789.32 761.63 780.40
  Q 758.96 774.79 755.88 769.40
  C 754.49 766.96 752.38 765.77 749.74 765.83
  Q 744.15 765.94 738.92 766.01
  A 1.13 1.12 -90.0 0 0 737.81 767.13
  L 737.62 806.46
  A 1.33 1.33 0.0 0 1 736.29 807.78
  L 684.73 807.65
  Q 684.15 807.65 684.11 807.08
  Q 683.77 802.33 683.78 793.25
  Q 683.80 739.77 683.98 724.05
  Q 683.98 723.97 683.89 720.46
  C 683.72 713.43 685.01 706.65 684.41 698.14
  C 683.20 681.07 683.74 663.66 683.45 646.02
  Q 683.44 644.91 684.54 644.76
  Q 685.50 644.64 687.00 644.64
  Q 721.75 644.66 756.50 644.81
  Q 759.98 644.83 770.91 645.96
  Q 774.14 646.29 778.97 647.59
  C 784.53 649.09 790.45 649.94 796.15 652.62
  C 799.76 654.32 803.25 657.08 806.66 659.49
  Q 809.82 661.73 812.23 664.66
  C 816.91 670.35 821.08 674.82 823.09 682.18
  Q 825.70 691.76 826.64 701.64
  Q 826.97 705.07 826.21 709.07
  C 824.48 718.21 824.30 727.73 819.44 736.23
  C 817.72 739.25 814.61 742.08 812.39 745.20
  C 809.81 748.83 807.68 751.03 803.77 752.19
  A 1.44 1.44 0.0 0 0 803.08 754.49
  C 808.27 760.70 811.98 767.60 816.48 774.09
  Q 819.15 777.95 821.51 782.00
  C 825.55 788.92 830.60 795.26 833.92 803.05
  A 0.40 0.40 0.0 0 0 834.68 802.96
  C 835.08 800.52 835.66 797.82 835.64 795.32
  C 835.25 745.71 836.13 695.87 835.33 646.53
  Q 835.30 644.61 837.22 644.61
  L 966.77 644.77
  Q 967.46 644.77 967.45 645.46
  Q 967.09 664.92 967.16 684.23
  Q 967.17 687.09 966.71 689.72
  A 1.57 1.57 0.0 0 1 965.12 691.02
  Q 938.45 690.26 911.44 690.71
  C 904.59 690.83 897.59 690.30 890.64 690.13
  A 1.14 1.14 0.0 0 0 889.47 691.27
  L 889.53 702.51
  A 1.02 1.01 -1.4 0 0 890.60 703.52
  C 913.42 702.45 936.70 703.12 959.75 702.51
  A 0.28 0.28 0.0 0 1 960.03 702.79
  L 959.89 748.24
  Q 959.89 749.63 958.51 749.62
  L 889.96 749.27
  Q 889.44 749.27 889.45 749.79
  L 889.52 761.53
  Q 889.52 762.28 890.28 762.28
  L 967.18 762.09
  A 2.11 2.11 0.0 0 1 969.18 763.53
  L 970.24 766.72
  Q 970.52 767.54 970.90 766.76
  C 973.50 761.45 975.37 756.53 978.64 751.22
  Q 982.64 744.72 984.49 738.00
  Q 985.05 736.00 986.73 737.21
  C 994.04 742.48 1000.99 748.50 1008.87 752.37
  Q 1013.72 754.75 1018.62 756.98
  Q 1030.80 762.54 1044.25 762.35
  Q 1048.44 762.29 1051.19 760.92
  Q 1054.06 759.50 1053.15 756.94
  C 1052.22 754.35 1045.65 751.44 1043.84 751.06
  C 1032.95 748.82 1022.22 744.49 1012.05 741.28
  C 999.21 737.21 987.38 730.64 981.06 717.69
  C 979.37 714.21 977.31 710.89 976.42 707.26
  C 973.82 696.79 974.40 686.57 979.21 676.74
  C 981.41 672.25 983.60 667.53 987.00 663.95
  C 993.87 656.71 1001.02 652.09 1010.93 648.82
  C 1016.31 647.04 1021.71 645.04 1027.16 644.22
  Q 1046.47 641.32 1064.78 645.67
  Q 1073.80 647.81 1085.80 651.81
  Q 1089.49 653.03 1093.41 655.40
  Q 1100.36 659.61 1107.69 663.08
  A 1.21 1.19 2.7 0 1 1108.31 663.75
  Q 1108.97 665.52 1108.43 666.90
  C 1104.65 676.44 1098.87 686.52 1094.57 696.49
  Q 1092.32 701.72 1090.12 706.88
  A 1.70 1.70 0.0 0 1 1087.68 707.67
  C 1084.82 705.94 1082.13 704.14 1079.22 702.77
  C 1070.48 698.62 1060.93 693.40 1051.61 691.48
  C 1045.71 690.27 1038.24 688.71 1032.37 690.50
  A 1.08 1.07 -84.6 0 0 1031.72 691.04
  C 1028.36 697.67 1049.77 702.24 1054.45 703.18
  C 1060.72 704.45 1066.43 707.52 1072.57 709.50
  Q 1078.45 711.40 1081.60 713.27
  Q 1092.59 719.78 1100.62 730.38
  C 1106.89 738.65 1108.20 751.26 1106.83 761.09
  Z
  M 1103.76 756.16
  Q 1103.78 741.18 1093.98 729.88
  Q 1089.87 725.13 1083.04 721.38
  Q 1072.09 715.37 1059.96 712.22
  Q 1049.14 709.41 1049.11 709.40
  Q 1040.28 706.53 1032.21 701.78
  Q 1028.46 699.57 1026.82 696.41
  C 1023.37 689.78 1028.83 682.82 1035.49 682.04
  Q 1048.10 680.57 1061.02 685.45
  Q 1073.18 690.04 1084.90 695.62
  Q 1088.43 697.30 1090.41 694.16
  C 1093.32 689.54 1094.57 684.17 1097.15 679.62
  C 1099.20 675.99 1102.25 671.76 1102.18 667.55
  A 1.32 1.29 -68.4 0 0 1101.80 666.65
  Q 1099.94 664.79 1097.51 663.77
  Q 1088.81 660.11 1079.99 656.72
  C 1065.72 651.22 1050.07 650.44 1034.76 651.38
  C 1017.41 652.44 997.14 661.39 989.07 677.63
  C 981.06 693.74 984.77 713.66 998.77 724.88
  Q 1004.36 729.36 1015.46 733.54
  Q 1029.25 738.74 1043.55 742.30
  C 1050.42 744.00 1054.63 745.96 1059.38 750.46
  C 1063.72 754.59 1063.54 762.13 1058.84 765.94
  C 1051.40 771.97 1041.48 771.04 1032.71 769.13
  Q 1028.27 768.17 1020.60 764.98
  C 1014.67 762.52 1009.25 760.71 1003.82 756.96
  C 999.67 754.08 991.20 745.64 987.60 753.87
  Q 982.82 764.79 976.66 774.98
  Q 975.73 776.52 976.22 778.06
  Q 976.37 778.53 976.80 778.78
  Q 979.77 780.50 989.63 786.90
  C 995.79 790.90 1004.05 793.49 1011.82 796.11
  C 1030.04 802.25 1051.90 803.80 1070.27 797.42
  C 1088.95 790.94 1103.72 777.28 1103.76 756.16
  Z
  M 1120.15 688.39
  Q 1119.18 693.51 1119.68 698.76
  Q 1121.29 715.42 1133.41 725.16
  Q 1137.47 728.42 1145.31 731.50
  C 1154.75 735.20 1164.55 739.08 1174.45 741.28
  C 1181.63 742.87 1193.32 746.56 1196.20 754.23
  C 1198.22 759.60 1195.81 765.39 1190.72 768.11
  C 1182.08 772.73 1166.96 769.99 1158.20 766.27
  Q 1153.07 764.10 1148.55 762.29
  Q 1139.88 758.82 1132.62 752.84
  C 1130.79 751.33 1128.44 750.64 1126.28 749.73
  A 1.58 1.58 0.0 0 0 1124.26 750.47
  L 1110.56 777.26
  Q 1110.23 777.91 1110.85 778.29
  C 1118.52 783.02 1126.30 788.62 1134.59 791.77
  Q 1139.26 793.54 1146.02 795.88
  C 1161.42 801.23 1178.08 802.87 1193.71 800.22
  C 1206.29 798.08 1220.12 792.23 1228.77 782.45
  C 1232.00 778.80 1233.00 777.86 1234.44 773.71
  C 1239.30 759.71 1239.57 743.70 1230.22 731.77
  Q 1225.12 725.26 1218.44 721.57
  Q 1206.32 714.89 1190.73 711.13
  Q 1183.16 709.31 1179.49 707.72
  Q 1175.16 705.84 1168.82 702.71
  Q 1160.34 698.53 1161.30 690.58
  C 1162.94 677.03 1186.60 682.31 1194.57 685.22
  Q 1207.90 690.07 1220.82 695.87
  Q 1223.56 697.10 1224.52 694.99
  Q 1228.69 685.75 1231.80 680.37
  C 1233.99 676.59 1235.22 673.31 1236.66 669.50
  C 1237.33 667.73 1236.77 666.11 1234.98 665.24
  Q 1224.17 660.03 1212.84 656.12
  Q 1203.94 653.05 1195.35 652.06
  C 1174.71 649.67 1151.59 650.62 1134.69 664.18
  Q 1122.95 673.59 1120.15 688.39
  Z
  M 762.90 762.32
  C 769.02 773.61 774.63 785.11 780.54 796.50
  C 781.86 799.06 783.02 799.93 785.87 799.95
  Q 804.64 800.08 824.36 800.31
  A 1.19 1.18 81.6 0 0 825.50 798.77
  C 825.17 797.74 824.75 796.38 824.15 795.40
  Q 811.90 775.47 799.11 755.89
  Q 797.87 753.99 797.17 752.37
  A 1.63 1.62 -26.5 0 1 797.86 750.32
  C 820.26 737.54 824.48 716.51 821.63 692.27
  C 820.09 679.17 809.65 666.41 798.24 660.82
  C 786.89 655.25 776.70 652.95 763.31 652.75
  Q 729.60 652.22 695.87 652.94
  Q 693.98 652.98 693.97 655.25
  Q 693.76 726.84 694.00 797.34
  A 2.75 2.75 0.0 0 0 696.73 800.08
  L 730.57 800.34
  Q 733.21 800.36 733.23 797.71
  Q 733.32 779.81 732.99 762.25
  C 732.95 759.95 733.96 758.98 736.28 758.91
  Q 747.13 758.55 757.99 759.16
  C 760.81 759.32 761.64 759.98 762.90 762.32
  Z
  M 962.59 679.75
  C 963.59 671.68 962.75 663.88 963.05 655.65
  A 2.84 2.83 -89.0 0 0 960.22 652.71
  L 847.87 652.49
  A 2.14 2.14 0.0 0 0 845.73 654.63
  L 845.80 796.99
  Q 845.80 800.19 848.99 800.19
  L 962.67 800.28
  A 2.13 2.13 0.0 0 0 964.81 798.14
  L 964.73 772.65
  A 2.15 2.13 5.4 0 0 962.98 770.55
  Q 959.86 769.97 956.00 769.97
  Q 921.16 769.89 886.88 770.02
  A 1.89 1.89 0.0 0 1 884.98 768.12
  L 884.99 742.99
  A 1.12 1.11 88.9 0 1 886.05 741.88
  C 908.26 740.95 930.47 741.29 952.60 741.21
  A 2.47 2.46 -89.9 0 0 955.06 738.75
  L 955.10 714.06
  A 2.79 2.79 0.0 0 0 952.32 711.27
  L 887.60 710.96
  Q 885.01 710.95 885.01 708.35
  L 885.01 684.26
  A 1.38 1.37 -0.2 0 1 886.38 682.89
  Q 922.94 682.56 959.50 682.27
  Q 962.28 682.24 962.59 679.75
  Z"
/>
<path fill="#def1fd" d="
  M 395.43 780.74
  A 0.80 0.73 -62.2 0 0 394.04 781.24
  L 393.57 806.76
  A 1.09 1.08 -89.5 0 1 392.49 807.83
  L 340.67 807.67
  A 0.75 0.75 0.0 0 1 339.93 806.92
  L 339.99 646.40
  Q 339.99 644.55 341.85 644.55
  L 392.39 644.56
  A 1.35 1.34 89.8 0 1 393.73 645.90
  Q 394.04 706.74 393.71 768.17
  C 393.69 771.25 394.02 774.41 394.28 777.39
  A 0.50 0.50 0.0 0 0 395.22 777.57
  L 415.31 737.64
  A 1.24 1.24 0.0 0 1 417.15 737.20
  C 424.16 742.36 430.89 748.21 438.19 752.06
  C 451.29 758.96 464.14 764.00 479.25 761.83
  C 480.65 761.63 482.59 759.62 482.43 757.88
  C 481.86 752.00 469.03 750.03 464.57 748.82
  Q 461.35 747.93 456.57 746.13
  C 449.32 743.40 440.80 741.60 434.64 738.72
  C 428.13 735.68 421.87 731.99 417.10 726.40
  C 414.67 723.56 412.19 721.01 410.64 717.63
  C 403.27 701.57 403.46 681.92 414.30 667.50
  Q 421.07 658.51 431.04 652.89
  C 435.44 650.41 440.95 648.92 446.46 646.93
  C 455.76 643.57 466.58 642.95 476.61 643.25
  C 489.30 643.63 502.35 647.12 514.46 651.31
  C 522.51 654.09 530.28 659.21 537.99 663.20
  A 2.81 2.80 28.3 0 1 539.15 667.05
  Q 536.49 671.85 534.09 676.31
  Q 532.48 679.33 529.77 685.84
  C 526.62 693.41 521.78 699.52 519.98 707.64
  Q 519.87 708.17 519.38 707.91
  Q 505.87 700.63 491.71 694.83
  Q 477.61 689.04 462.61 690.13
  A 2.33 2.32 -71.6 0 0 461.02 690.93
  C 457.75 694.70 470.69 699.37 472.75 700.00
  C 478.96 701.89 485.31 702.91 491.25 705.28
  C 497.64 707.81 504.80 709.93 510.57 712.75
  C 516.91 715.84 520.80 720.00 525.75 724.05
  C 531.08 728.39 537.42 742.93 538.11 751.06
  C 539.09 762.72 535.80 772.40 530.10 782.53
  Q 527.74 786.72 524.47 789.76
  C 511.11 802.20 493.72 807.73 475.63 808.73
  Q 471.47 808.96 464.43 808.30
  C 459.35 807.82 454.58 807.91 449.65 806.47
  C 441.73 804.16 433.40 802.64 426.18 799.37
  Q 417.90 795.62 410.04 791.06
  C 405.82 788.61 401.58 784.44 396.79 781.74
  Q 395.65 781.10 395.43 780.74
  Z
  M 474.00 770.72
  C 466.19 770.54 457.68 769.74 450.43 766.51
  Q 445.12 764.14 442.55 763.23
  C 433.97 760.21 428.30 755.33 421.27 750.76
  C 419.19 749.41 418.33 749.41 417.06 751.69
  Q 410.96 762.71 406.14 774.35
  C 405.32 776.34 403.86 778.45 406.51 779.98
  Q 412.81 783.63 416.72 786.04
  Q 422.11 789.37 426.06 790.99
  Q 442.13 797.59 454.24 799.75
  Q 465.85 801.81 481.17 800.67
  Q 487.64 800.19 493.60 798.25
  C 505.28 794.44 516.17 789.34 523.25 779.31
  Q 528.13 772.39 529.47 763.65
  C 530.86 754.57 530.23 744.51 525.24 736.49
  C 517.86 724.61 506.66 718.78 493.41 714.22
  Q 491.09 713.42 481.36 711.01
  Q 469.78 708.15 459.35 702.19
  C 455.06 699.74 451.28 694.93 452.70 689.91
  C 455.72 679.25 471.86 681.55 479.52 682.70
  C 487.33 683.87 495.33 687.99 503.02 690.88
  C 506.88 692.34 510.34 694.35 514.05 696.20
  Q 514.61 696.47 515.14 696.16
  Q 516.63 695.30 517.53 692.98
  Q 520.62 685.01 527.43 672.82
  C 530.55 667.24 527.52 665.53 522.80 663.44
  C 510.96 658.20 498.57 653.15 485.83 651.96
  Q 473.58 650.81 461.28 651.72
  C 451.49 652.44 443.58 655.07 435.25 659.60
  C 422.64 666.45 415.31 676.81 413.34 690.83
  C 411.73 702.23 416.41 715.77 424.97 723.58
  Q 429.81 727.99 434.17 729.86
  Q 441.00 732.79 462.62 739.96
  C 467.00 741.41 472.58 742.07 476.30 743.38
  Q 481.61 745.26 486.93 749.96
  C 492.12 754.54 491.21 763.67 485.59 767.28
  C 482.44 769.30 478.00 770.81 474.00 770.72
  Z
  M 386.47 654.83
  A 1.99 1.99 0.0 0 0 384.48 652.84
  L 350.72 652.84
  A 1.99 1.99 0.0 0 0 348.73 654.83
  L 348.73 798.15
  A 1.99 1.99 0.0 0 0 350.72 800.14
  L 384.48 800.14
  A 1.99 1.99 0.0 0 0 386.47 798.15
  L 386.47 654.83
  Z"
/>
<path fill="#def1fd" d="
  M 179.65 645.95
  A 1.14 1.14 0.0 0 1 180.79 644.81
  L 253.30 644.81
  A 84.11 79.54 -0.0 0 1 337.41 724.35
  L 337.41 728.01
  A 84.11 79.54 -0.0 0 1 253.30 807.55
  L 180.79 807.55
  A 1.14 1.14 0.0 0 1 179.65 806.41
  L 179.65 645.95
  Z
  M 186.50 652.60
  Q 188.06 657.65 188.07 663.00
  Q 188.22 730.41 187.96 797.99
  A 1.98 1.97 2.0 0 0 189.81 799.97
  Q 192.15 800.12 195.00 800.13
  Q 215.25 800.21 235.49 800.13
  C 253.56 800.06 264.96 799.89 278.28 795.76
  C 308.17 786.49 329.27 760.73 329.17 729.24
  C 329.12 711.84 327.22 699.38 317.60 685.17
  Q 310.37 674.49 300.14 667.15
  C 287.24 657.88 268.13 652.68 252.51 652.72
  Q 230.93 652.78 209.34 652.76
  C 203.72 652.76 197.23 652.10 191.11 652.10
  Q 190.63 652.10 190.21 651.88
  Q 188.69 651.10 187.09 651.53
  A 0.85 0.84 74.2 0 0 186.50 652.60
  Z"
/>
<path fill="#def1fd" d="
  M 595.85 766.72
  L 595.66 806.53
  Q 595.66 807.72 594.47 807.72
  L 542.84 807.67
  A 0.64 0.63 0.0 0 1 542.20 807.04
  C 541.97 786.81 542.93 766.59 542.69 746.35
  C 542.45 725.69 542.85 708.01 542.34 681.82
  C 542.14 671.86 542.40 657.86 541.90 645.87
  Q 541.88 645.32 542.41 645.18
  Q 544.68 644.59 547.12 644.60
  Q 575.78 644.75 604.44 644.74
  Q 609.30 644.73 615.54 645.08
  C 620.52 645.36 625.44 645.23 630.25 646.40
  C 638.62 648.45 648.02 650.32 655.19 654.70
  Q 677.29 668.19 681.20 694.74
  C 685.51 724.05 670.84 753.17 641.56 762.10
  C 636.81 763.54 630.78 764.00 625.28 764.74
  Q 621.93 765.20 618.69 765.24
  Q 607.69 765.41 596.72 765.82
  A 0.90 0.90 0.0 0 0 595.85 766.72
  Z
  M 591.54 761.22
  Q 591.58 759.03 593.77 759.06
  C 607.12 759.25 621.19 760.01 633.78 757.28
  Q 643.79 755.11 650.68 751.96
  Q 657.37 748.89 663.28 742.88
  Q 668.57 737.48 671.93 730.26
  C 677.27 718.77 680.26 701.81 675.67 689.38
  C 674.19 685.38 672.85 680.94 670.99 677.60
  C 663.79 664.65 650.78 657.76 636.71 654.41
  Q 630.71 652.98 621.66 652.80
  Q 587.41 652.12 553.24 652.81
  A 1.09 1.09 0.0 0 0 552.17 653.90
  L 552.17 798.84
  Q 552.17 799.35 552.66 799.48
  Q 554.31 799.89 556.75 799.96
  Q 572.12 800.37 588.92 800.20
  A 2.30 2.30 0.0 0 0 591.19 798.10
  C 592.26 785.88 591.31 773.10 591.54 761.22
  Z"
/>
<path fill="#5249a5" d="
  M 1103.76 756.16
  C 1103.72 777.28 1088.95 790.94 1070.27 797.42
  C 1051.90 803.80 1030.04 802.25 1011.82 796.11
  C 1004.05 793.49 995.79 790.90 989.63 786.90
  Q 979.77 780.50 976.80 778.78
  Q 976.37 778.53 976.22 778.06
  Q 975.73 776.52 976.66 774.98
  Q 982.82 764.79 987.60 753.87
  C 991.20 745.64 999.67 754.08 1003.82 756.96
  C 1009.25 760.71 1014.67 762.52 1020.60 764.98
  Q 1028.27 768.17 1032.71 769.13
  C 1041.48 771.04 1051.40 771.97 1058.84 765.94
  C 1063.54 762.13 1063.72 754.59 1059.38 750.46
  C 1054.63 745.96 1050.42 744.00 1043.55 742.30
  Q 1029.25 738.74 1015.46 733.54
  Q 1004.36 729.36 998.77 724.88
  C 984.77 713.66 981.06 693.74 989.07 677.63
  C 997.14 661.39 1017.41 652.44 1034.76 651.38
  C 1050.07 650.44 1065.72 651.22 1079.99 656.72
  Q 1088.81 660.11 1097.51 663.77
  Q 1099.94 664.79 1101.80 666.65
  A 1.32 1.29 -68.4 0 1 1102.18 667.55
  C 1102.25 671.76 1099.20 675.99 1097.15 679.62
  C 1094.57 684.17 1093.32 689.54 1090.41 694.16
  Q 1088.43 697.30 1084.90 695.62
  Q 1073.18 690.04 1061.02 685.45
  Q 1048.10 680.57 1035.49 682.04
  C 1028.83 682.82 1023.37 689.78 1026.82 696.41
  Q 1028.46 699.57 1032.21 701.78
  Q 1040.28 706.53 1049.11 709.40
  Q 1049.14 709.41 1059.96 712.22
  Q 1072.09 715.37 1083.04 721.38
  Q 1089.87 725.13 1093.98 729.88
  Q 1103.78 741.18 1103.76 756.16
  Z"
/>
<path fill="#5249a5" d="
  M 1120.15 688.39
  Q 1122.95 673.59 1134.69 664.18
  C 1151.59 650.62 1174.71 649.67 1195.35 652.06
  Q 1203.94 653.05 1212.84 656.12
  Q 1224.17 660.03 1234.98 665.24
  C 1236.77 666.11 1237.33 667.73 1236.66 669.50
  C 1235.22 673.31 1233.99 676.59 1231.80 680.37
  Q 1228.69 685.75 1224.52 694.99
  Q 1223.56 697.10 1220.82 695.87
  Q 1207.90 690.07 1194.57 685.22
  C 1186.60 682.31 1162.94 677.03 1161.30 690.58
  Q 1160.34 698.53 1168.82 702.71
  Q 1175.16 705.84 1179.49 707.72
  Q 1183.16 709.31 1190.73 711.13
  Q 1206.32 714.89 1218.44 721.57
  Q 1225.12 725.26 1230.22 731.77
  C 1239.57 743.70 1239.30 759.71 1234.44 773.71
  C 1233.00 777.86 1232.00 778.80 1228.77 782.45
  C 1220.12 792.23 1206.29 798.08 1193.71 800.22
  C 1178.08 802.87 1161.42 801.23 1146.02 795.88
  Q 1139.26 793.54 1134.59 791.77
  C 1126.30 788.62 1118.52 783.02 1110.85 778.29
  Q 1110.23 777.91 1110.56 777.26
  L 1124.26 750.47
  A 1.58 1.58 0.0 0 1 1126.28 749.73
  C 1128.44 750.64 1130.79 751.33 1132.62 752.84
  Q 1139.88 758.82 1148.55 762.29
  Q 1153.07 764.10 1158.20 766.27
  C 1166.96 769.99 1182.08 772.73 1190.72 768.11
  C 1195.81 765.39 1198.22 759.60 1196.20 754.23
  C 1193.32 746.56 1181.63 742.87 1174.45 741.28
  C 1164.55 739.08 1154.75 735.20 1145.31 731.50
  Q 1137.47 728.42 1133.41 725.16
  Q 1121.29 715.42 1119.68 698.76
  Q 1119.18 693.51 1120.15 688.39
  Z"
/>
<path fill="#9a92db" d="
  M 450.43 766.51
  C 457.68 769.74 466.19 770.54 474.00 770.72
  C 478.00 770.81 482.44 769.30 485.59 767.28
  C 491.21 763.67 492.12 754.54 486.93 749.96
  Q 481.61 745.26 476.30 743.38
  C 472.58 742.07 467.00 741.41 462.62 739.96
  Q 441.00 732.79 434.17 729.86
  Q 429.81 727.99 424.97 723.58
  C 416.41 715.77 411.73 702.23 413.34 690.83
  C 415.31 676.81 422.64 666.45 435.25 659.60
  C 443.58 655.07 451.49 652.44 461.28 651.72
  Q 473.58 650.81 485.83 651.96
  C 498.57 653.15 510.96 658.20 522.80 663.44
  C 527.52 665.53 530.55 667.24 527.43 672.82
  Q 520.62 685.01 517.53 692.98
  Q 516.63 695.30 515.14 696.16
  Q 514.61 696.47 514.05 696.20
  C 510.34 694.35 506.88 692.34 503.02 690.88
  C 495.33 687.99 487.33 683.87 479.52 682.70
  C 471.86 681.55 455.72 679.25 452.70 689.91
  C 451.28 694.93 455.06 699.74 459.35 702.19
  Q 469.78 708.15 481.36 711.01
  Q 491.09 713.42 493.41 714.22
  C 506.66 718.78 517.86 724.61 525.24 736.49
  C 530.23 744.51 530.86 754.57 529.47 763.65
  Q 528.13 772.39 523.25 779.31
  C 516.17 789.34 505.28 794.44 493.60 798.25
  Q 487.64 800.19 481.17 800.67
  Q 465.85 801.81 454.24 799.75
  Q 442.13 797.59 426.06 790.99
  Q 422.11 789.37 416.72 786.04
  Q 412.81 783.63 406.51 779.98
  C 403.86 778.45 405.32 776.34 406.14 774.35
  Q 410.96 762.71 417.06 751.69
  C 418.33 749.41 419.19 749.41 421.27 750.76
  C 428.30 755.33 433.97 760.21 442.55 763.23
  Q 445.12 764.14 450.43 766.51
  Z"
/>
<path fill="#9a92db" d="
  M 186.50 652.60
  A 0.85 0.84 74.2 0 1 187.09 651.53
  Q 188.69 651.10 190.21 651.88
  Q 190.63 652.10 191.11 652.10
  C 197.23 652.10 203.72 652.76 209.34 652.76
  Q 230.93 652.78 252.51 652.72
  C 268.13 652.68 287.24 657.88 300.14 667.15
  Q 310.37 674.49 317.60 685.17
  C 327.22 699.38 329.12 711.84 329.17 729.24
  C 329.27 760.73 308.17 786.49 278.28 795.76
  C 264.96 799.89 253.56 800.06 235.49 800.13
  Q 215.25 800.21 195.00 800.13
  Q 192.15 800.12 189.81 799.97
  A 1.98 1.97 2.0 0 1 187.96 797.99
  Q 188.22 730.41 188.07 663.00
  Q 188.06 657.65 186.50 652.60
  Z
  M 188.93 652.50
  A 0.80 0.68 0.0 0 0 188.13 651.82
  A 0.80 0.68 0.0 0 0 187.33 652.50
  A 0.80 0.68 0.0 0 0 188.13 653.18
  A 0.80 0.68 0.0 0 0 188.93 652.50
  Z
  M 226.24 686.00
  L 225.96 766.80
  A 3.33 3.33 0.0 0 0 229.28 770.14
  L 250.50 770.21
  A 40.01 39.97 -89.8 0 0 290.61 730.34
  L 290.63 722.90
  A 40.01 39.97 -89.8 0 0 250.80 682.75
  L 229.58 682.68
  A 3.33 3.33 0.0 0 0 226.24 686.00
  Z"
/>
<ellipse fill="#5249a5" cx="188.13" cy="652.50" rx="0.80" ry="0.68"/>
<path fill="#5249a5" d="
  M 591.54 761.22
  C 591.31 773.10 592.26 785.88 591.19 798.10
  A 2.30 2.30 0.0 0 1 588.92 800.20
  Q 572.12 800.37 556.75 799.96
  Q 554.31 799.89 552.66 799.48
  Q 552.17 799.35 552.17 798.84
  L 552.17 653.90
  A 1.09 1.09 0.0 0 1 553.24 652.81
  Q 587.41 652.12 621.66 652.80
  Q 630.71 652.98 636.71 654.41
  C 650.78 657.76 663.79 664.65 670.99 677.60
  C 672.85 680.94 674.19 685.38 675.67 689.38
  C 680.26 701.81 677.27 718.77 671.93 730.26
  Q 668.57 737.48 663.28 742.88
  Q 657.37 748.89 650.68 751.96
  Q 643.79 755.11 633.78 757.28
  C 621.19 760.01 607.12 759.25 593.77 759.06
  Q 591.58 759.03 591.54 761.22
  Z
  M 591.63 684.17
  L 591.41 726.93
  A 1.77 1.77 0.0 0 0 593.17 728.71
  L 617.18 728.84
  A 22.58 20.29 0.3 0 0 639.86 708.67
  L 639.89 702.95
  A 22.58 20.29 0.3 0 0 617.42 682.54
  L 593.41 682.41
  A 1.77 1.77 0.0 0 0 591.63 684.17
  Z"
/>
<path fill="#5249a5" d="
  M 780.54 796.50
  C 774.63 785.11 769.02 773.61 762.90 762.32
  C 761.64 759.98 760.81 759.32 757.99 759.16
  Q 747.13 758.55 736.28 758.91
  C 733.96 758.98 732.95 759.95 732.99 762.25
  Q 733.32 779.81 733.23 797.71
  Q 733.21 800.36 730.57 800.34
  L 696.73 800.08
  A 2.75 2.75 0.0 0 1 694.00 797.34
  Q 693.76 726.84 693.97 655.25
  Q 693.98 652.98 695.87 652.94
  Q 729.60 652.22 763.31 652.75
  C 776.70 652.95 786.89 655.25 798.24 660.82
  C 809.65 666.41 820.09 679.17 821.63 692.27
  C 824.48 716.51 820.26 737.54 797.86 750.32
  A 1.63 1.62 -26.5 0 0 797.17 752.37
  Q 797.87 753.99 799.11 755.89
  Q 811.90 775.47 824.15 795.40
  C 824.75 796.38 825.17 797.74 825.50 798.77
  A 1.19 1.18 81.6 0 1 824.36 800.31
  Q 804.64 800.08 785.87 799.95
  C 783.02 799.93 781.86 799.06 780.54 796.50
  Z
  M 733.29 684.14
  L 733.21 727.00
  A 1.72 1.72 0.0 0 0 734.93 728.72
  L 762.59 728.77
  A 22.02 20.11 0.1 0 0 784.64 708.69
  L 784.66 702.61
  A 22.02 20.11 0.1 0 0 762.67 682.47
  L 735.01 682.42
  A 1.72 1.72 0.0 0 0 733.29 684.14
  Z"
/>
<rect fill="#9a92db" x="348.73" y="652.84" width="37.74" height="147.30" rx="1.99"/>
<path fill="#5249a5" d="
  M 962.59 679.75
  Q 962.28 682.24 959.50 682.27
  Q 922.94 682.56 886.38 682.89
  A 1.38 1.37 -0.2 0 0 885.01 684.26
  L 885.01 708.35
  Q 885.01 710.95 887.60 710.96
  L 952.32 711.27
  A 2.79 2.79 0.0 0 1 955.10 714.06
  L 955.06 738.75
  A 2.47 2.46 -89.9 0 1 952.60 741.21
  C 930.47 741.29 908.26 740.95 886.05 741.88
  A 1.12 1.11 88.9 0 0 884.99 742.99
  L 884.98 768.12
  A 1.89 1.89 0.0 0 0 886.88 770.02
  Q 921.16 769.89 956.00 769.97
  Q 959.86 769.97 962.98 770.55
  A 2.15 2.13 5.4 0 1 964.73 772.65
  L 964.81 798.14
  A 2.13 2.13 0.0 0 1 962.67 800.28
  L 848.99 800.19
  Q 845.80 800.19 845.80 796.99
  L 845.73 654.63
  A 2.14 2.14 0.0 0 1 847.87 652.49
  L 960.22 652.71
  A 2.84 2.83 -89.0 0 1 963.05 655.65
  C 962.75 663.88 963.59 671.68 962.59 679.75
  Z"
/>
<path fill="#def1fd" d="
  M 591.63 684.17
  A 1.77 1.77 0.0 0 1 593.41 682.41
  L 617.42 682.54
  A 22.58 20.29 0.3 0 1 639.89 702.95
  L 639.86 708.67
  A 22.58 20.29 0.3 0 1 617.18 728.84
  L 593.17 728.71
  A 1.77 1.77 0.0 0 1 591.41 726.93
  L 591.63 684.17
  Z
  M 595.98 690.25
  L 595.66 721.07
  A 0.20 0.20 0.0 0 0 595.86 721.27
  L 613.55 721.45
  A 16.97 14.07 0.6 0 0 630.66 707.56
  L 630.70 704.48
  A 16.97 14.07 0.6 0 0 613.87 690.24
  L 596.18 690.05
  A 0.20 0.20 0.0 0 0 595.98 690.25
  Z"
/>
<path fill="#def1fd" d="
  M 733.29 684.14
  A 1.72 1.72 0.0 0 1 735.01 682.42
  L 762.67 682.47
  A 22.02 20.11 0.1 0 1 784.66 702.61
  L 784.64 708.69
  A 22.02 20.11 0.1 0 1 762.59 728.77
  L 734.93 728.72
  A 1.72 1.72 0.0 0 1 733.21 727.00
  L 733.29 684.14
  Z
  M 737.79 691.15
  L 737.89 720.53
  A 0.85 0.85 0.0 0 0 738.74 721.38
  L 760.53 721.31
  A 14.34 12.76 -0.2 0 0 774.83 708.50
  L 774.81 702.94
  A 14.34 12.76 -0.2 0 0 760.43 690.23
  L 738.64 690.30
  A 0.85 0.85 0.0 0 0 737.79 691.15
  Z"
/>
<path fill="#def1fd" d="
  M 226.24 686.00
  A 3.33 3.33 0.0 0 1 229.58 682.68
  L 250.80 682.75
  A 40.01 39.97 -89.8 0 1 290.63 722.90
  L 290.61 730.34
  A 40.01 39.97 -89.8 0 1 250.50 770.21
  L 229.28 770.14
  A 3.33 3.33 0.0 0 1 225.96 766.80
  L 226.24 686.00
  Z
  M 233.43 692.73
  L 233.55 760.69
  A 1.99 1.99 0.0 0 0 235.54 762.68
  L 251.94 762.65
  A 35.31 31.73 89.9 0 0 283.61 727.29
  L 283.61 725.97
  A 35.31 31.73 89.9 0 0 251.82 690.71
  L 235.42 690.74
  A 1.99 1.99 0.0 0 0 233.43 692.73
  Z"
/>
</svg>
