<svg xmlns="http://www.w3.org/2000/svg" version="1.1" xmlns:xlink="http://www.w3.org/1999/xlink" xmlns:svgjs="http://svgjs.dev/svgjs" width="1440" height="560" preserveAspectRatio="none" viewBox="0 0 1440 560"><g mask="url(&quot;#SvgjsMask1002&quot;)" fill="none"><rect width="1440" height="560" x="0" y="0" fill="rgba(47, 67, 100, 1)"></rect><path d="M0,345.513C65.439,339.936,123.701,312.71,183.463,285.474C253.222,253.682,339.918,239.079,378.676,172.936C417.902,105.995,403.893,19.655,383.012,-55.069C363.705,-124.161,313.364,-176.611,265.952,-230.449C218.917,-283.859,177.85,-354.364,107.899,-367.471C38.521,-380.471,-17.903,-310.588,-87.09,-296.603C-166.101,-280.632,-259.163,-328.9,-323.456,-280.276C-387.517,-231.827,-410.017,-137.887,-402.713,-57.901C-395.853,17.223,-321.053,63.817,-285.939,130.584C-253.511,192.244,-260.415,276.701,-204.726,318.56C-148.567,360.772,-70,351.479,0,345.513" fill="#263650"></path><path d="M1440 967.9680000000001C1529.853 971.935 1623.867 1011.489 1704.338 971.318 1786.71 930.198 1818.569 833.3340000000001 1866.797 754.912 1922.086 665.006 2026.432 582.238 2007.461 478.411 1988.383 374.002 1855.865 339.18600000000004 1777.713 267.37 1710.2440000000001 205.37 1660.972 126.92000000000002 1579.445 85.094 1485.79 37.04600000000005 1377.884-24.434999999999945 1278.941 11.485000000000014 1179.7939999999999 47.47900000000004 1140.167 165.70800000000003 1094.9270000000001 260.992 1058.843 336.99199999999996 1053.829 419.56 1045.446 503.272 1037.439 583.234 1022.1659999999999 663.047 1047.0140000000001 739.471 1073.682 821.491 1115.688 905.273 1190.247 948.624 1263.925 991.463 1354.856 964.2090000000001 1440 967.9680000000001" fill="#385078"></path></g><defs><mask id="SvgjsMask1002"><rect width="1440" height="560" fill="#ffffff"></rect></mask></defs></svg>