<svg xmlns="http://www.w3.org/2000/svg" version="1.1" xmlns:xlink="http://www.w3.org/1999/xlink" xmlns:svgjs="http://svgjs.dev/svgjs" width="1440" height="250" preserveAspectRatio="none" viewBox="0 0 1440 250"><g mask="url(&quot;#SvgjsMask1003&quot;)" fill="none"><path d="M8 250L258 0L445.5 0L195.5 250z" fill="url(&quot;#SvgjsLinearGradient1004&quot;)"></path><path d="M275.6 250L525.6 0L770.1 0L520.1 250z" fill="url(&quot;#SvgjsLinearGradient1004&quot;)"></path><path d="M522.2 250L772.2 0L1040.7 0L790.7 250z" fill="url(&quot;#SvgjsLinearGradient1004&quot;)"></path><path d="M745.8000000000001 250L995.8000000000001 0L1244.8000000000002 0L994.8000000000001 250z" fill="url(&quot;#SvgjsLinearGradient1004&quot;)"></path><path d="M1407 250L1157 0L1056.5 0L1306.5 250z" fill="url(&quot;#SvgjsLinearGradient1005&quot;)"></path><path d="M1172.4 250L922.4000000000001 0L865.4000000000001 0L1115.4 250z" fill="url(&quot;#SvgjsLinearGradient1005&quot;)"></path><path d="M948.8 250L698.8 0L563.8 0L813.8 250z" fill="url(&quot;#SvgjsLinearGradient1005&quot;)"></path><path d="M720.1999999999999 250L470.19999999999993 0L201.69999999999993 0L451.69999999999993 250z" fill="url(&quot;#SvgjsLinearGradient1005&quot;)"></path><path d="M1270.5506444755763 250L1440 80.55064447557626L1440 250z" fill="url(&quot;#SvgjsLinearGradient1004&quot;)"></path><path d="M0 250L169.44935552442374 250L 0 80.55064447557626z" fill="url(&quot;#SvgjsLinearGradient1005&quot;)"></path></g><defs><mask id="SvgjsMask1003"><rect width="1440" height="250" fill="#ffffff"></rect></mask><linearGradient x1="0%" y1="100%" x2="100%" y2="0%" id="SvgjsLinearGradient1004"><stop stop-color="rgba(31, 102, 184, 1)" offset="0"></stop><stop stop-opacity="0" stop-color="rgba(31, 102, 184, 1)" offset="0.66"></stop></linearGradient><linearGradient x1="100%" y1="100%" x2="0%" y2="0%" id="SvgjsLinearGradient1005"><stop stop-color="rgba(31, 102, 184, 1)" offset="0"></stop><stop stop-opacity="0" stop-color="rgba(31, 102, 184, 1)" offset="0.66"></stop></linearGradient></defs></svg>